<svg width="858" viewBox="0 0 858 255" xmlns="http://www.w3.org/2000/svg" height="255" xmlns:xlink="http://www.w3.org/1999/xlink"><defs/><g transform="translate(-245.00,-679.23)"><g transform="translate(495.056000,720.228400)" id="group1"><path stroke="#e1826b" id="shape2" fill="none" stroke-width="2" d="M114.0,24.0L114.0,24.0zM114.0,24.0L114.0,24.0zM114.0,24.0L114.0,24.0zM114.0,24.0L114.0,24.0zM114.0,24.0L114.0,24.0zM114.0,24.0L114.0,24.0zM114.0,24.0L114.0,24.0zM114.0,24.0L114.0,24.0z"/><path stroke="#e1826b" transform="translate(-0.055632,-0.228432)" id="shape3" fill="#ffefec" d="M.0,.0L228.0,.0L228.0,48.0L.0,48.0L.0,.0z" stroke-width="2" fill-rule="nonzero"/><text xml:space="preserve" style="fill:#000000;font-family:Consolas;font-size:13.00pt"><tspan x="51.0" y="30.0">_mark: markOop</tspan></text></g><g transform="translate(495.056000,768.228400)" id="group4"><path stroke="#e1826b" id="shape5" fill="none" stroke-width="2" d="M114.0,24.0L114.0,24.0zM114.0,24.0L114.0,24.0zM114.0,24.0L114.0,24.0zM114.0,24.0L114.0,24.0zM114.0,24.0L114.0,24.0zM114.0,24.0L114.0,24.0zM114.0,24.0L114.0,24.0zM114.0,24.0L114.0,24.0z"/><path stroke="#e1826b" transform="translate(-0.055632,-0.228432)" id="shape6" fill="#ffefec" d="M.0,.0L228.0,.0L228.0,48.0L.0,48.0L.0,.0z" stroke-width="2" fill-rule="nonzero"/><text xml:space="preserve" style="fill:#000000;font-family:Consolas;font-size:13.00pt"><tspan x="42.0" y="30.0">_klass: klassOop</tspan></text></g><g transform="translate(495.056000,815.228400)" id="group7"><path stroke="#70b51f" id="shape8" fill="none" stroke-width="2" d="M114.0,24.0L114.0,24.0zM114.0,24.0L114.0,24.0zM114.0,24.0L114.0,24.0zM114.0,24.0L114.0,24.0zM114.0,24.0L114.0,24.0zM114.0,24.0L114.0,24.0zM114.0,24.0L114.0,24.0zM114.0,24.0L114.0,24.0z"/><path stroke="#70b51f" transform="translate(-0.055632,-0.228432)" id="shape9" fill="#edf6e8" d="M.0,.0L228.0,.0L228.0,48.0L.0,48.0L.0,.0z" stroke-width="2" fill-rule="nonzero"/><text xml:space="preserve" style="fill:#000000;font-family:Consolas;font-size:13.00pt"><tspan x="69.0" y="30.0">value: int</tspan></text></g><g transform="translate(730.000000,720.228400)" id="shape10"><path stroke="#e1670a" fill="none" stroke-width="2" d="M.0,.0L9.0,.0C11.5,-0.4,14.0,.5,15.8,2.2C17.5,4.0,18.4,6.5,18.0,9.0L18.0,39.0C17.6,41.5,18.5,44.0,20.2,45.8C22.0,47.5,24.5,48.4,27.0,48.0C24.5,47.6,22.0,48.5,20.2,50.2C18.5,52.0,17.6,54.5,18.0,57.0L18.0,87.0C18.4,89.5,17.5,92.0,15.8,93.8C14.0,95.5,11.5,96.4,9.0,96.0L.0,96.0"/><text xml:space="preserve" style="fill:#596c9f;font-family:微软雅黑;font-size:10.00pt"><tspan x="62.5" y="44.0">对象头</tspan><tspan x="37.0" y="63.0">4 + 4 = 8 字节</tspan></text></g><g transform="translate(495.056000,864.000000)" id="group11"><path stroke="#7384e1" id="shape12" fill="none" stroke-width="2" d="M114.0,24.0L114.0,24.0zM114.0,24.0L114.0,24.0zM114.0,24.0L114.0,24.0zM114.0,24.0L114.0,24.0zM114.0,24.0L114.0,24.0zM114.0,24.0L114.0,24.0zM114.0,24.0L114.0,24.0zM114.0,24.0L114.0,24.0z"/><path stroke="#7384e1" transform="translate(-0.055632,-0.228432)" id="shape13" fill="#edefff" d="M.0,.0L228.0,.0L228.0,48.0L.0,48.0L.0,.0z" stroke-width="2" fill-rule="nonzero"/><text xml:space="preserve" style="fill:#000000;font-family:Consolas;font-size:13.00pt"><tspan x="82.5" y="30.0">padding</tspan></text></g><g transform="translate(784.003045,815.228400)" id="shape14"><path stroke="#70b51f" fill="#edf6e8" d="M12.0,.0L12.0,.0L12.0,.0L12.0,.0L107.0,.0C113.6,.0,119.0,5.4,119.0,12.0L119.0,12.0L119.0,12.0L119.0,12.0L119.0,36.0C119.0,42.6,113.6,48.0,107.0,48.0L12.0,48.0L12.0,48.0L12.0,48.0L12.0,48.0C5.4,48.0,.0,42.6,.0,36.0L.0,35.6L-61.0,35.8L.0,24.1L.0,12.0C.0,5.4,5.4,.0,12.0,.0z" stroke-width="2" fill-rule="nonzero"/><text xml:space="preserve" style="fill:#000000;font-family:微软雅黑;font-size:10.00pt"><tspan x="20.5" y="20.0">对象实际数据</tspan><tspan x="40.5" y="39.0">4 字节</tspan></text></g><g transform="translate(784.003068,879.000000)" id="shape15"><path stroke="#7384e1" fill="#edefff" d="M12.0,.0L12.0,.0L12.0,.0L12.0,.0L107.0,.0C113.6,.0,119.0,5.4,119.0,12.0L119.0,12.0L119.0,12.0L119.0,12.0L119.0,42.0C119.0,48.6,113.6,54.0,107.0,54.0L12.0,54.0L12.0,54.0L12.0,54.0L12.0,54.0C5.4,54.0,.0,48.6,.0,42.0L.0,25.0L-61.0,8.8L.0,12.0L.0,12.0C.0,5.4,5.4,.0,12.0,.0z" stroke-width="2" fill-rule="nonzero"/><text xml:space="preserve" style="fill:#000000;font-family:微软雅黑;font-size:10.00pt"><tspan x="33.5" y="23.0">占位对齐</tspan><tspan x="40.5" y="42.0">4 字节</tspan></text></g><g transform="translate(246.000000,680.228400)" id="shape16"><path stroke="#e1826b" fill="#ffefec" d="M98.3,87.7C34.6,81.5,.0,64.4,.0,44.0C.0,19.7,49.2,.0,110.0,.0C170.8,.0,220.0,19.7,220.0,44.0C220.0,64.4,185.4,81.5,121.7,87.7L249.0,123.8L98.3,87.7z" stroke-width="2" fill-rule="nonzero"/><text xml:space="preserve" style="fill:#000000;font-family:微软雅黑;font-size:9.00pt"><tspan x="15.5" y="31.5">JAVA 对象实例的大小是不可以改变</tspan><tspan x="8.0" y="48.5">的，因此确定了类型就可以知道对象实</tspan><tspan x="86.0" y="65.5">例的大小</tspan></text></g><g transform="translate(917.000000,720.228400)" id="shape17"><path stroke="#000000" fill="none" stroke-width="2" d="M.0,.0L9.0,.0C11.5,-0.4,14.0,.5,15.8,2.2C17.5,4.0,18.4,6.5,18.0,9.0L18.0,86.9C17.6,89.4,18.5,91.9,20.2,93.6C22.0,95.4,24.5,96.2,27.0,95.9C24.5,95.5,22.0,96.4,20.2,98.1C18.5,99.9,17.6,102.4,18.0,104.9L18.0,182.8C18.4,185.3,17.5,187.8,15.8,189.5C14.0,191.3,11.5,192.1,9.0,191.8L.0,191.8"/><text xml:space="preserve" style="fill:#000000;font-family:微软雅黑;font-size:10.00pt"><tspan x="41.0" y="91.9">Integer 对象共 16 字节</tspan><tspan x="62.5" y="110.9">有效数据 4 字节</tspan></text></g></g></svg>
