<svg width="751" viewBox="0 0 751 355" xmlns="http://www.w3.org/2000/svg" height="355" xmlns:xlink="http://www.w3.org/1999/xlink"><defs/><g transform="translate(-79.00,-215.00)"><g transform="translate(211.000000,264.000000)" id="group1"><path stroke="#e1826b" id="shape2" fill="none" stroke-width="2" d="M114.0,24.0L114.0,24.0zM114.0,24.0L114.0,24.0zM114.0,24.0L114.0,24.0zM114.0,24.0L114.0,24.0zM114.0,24.0L114.0,24.0zM114.0,24.0L114.0,24.0zM114.0,24.0L114.0,24.0zM114.0,24.0L114.0,24.0z"/><path stroke="#e1826b" transform="translate(-0.055632,-0.228432)" id="shape3" fill="#ffefec" d="M.0,.0L228.0,.0L228.0,48.0L.0,48.0L.0,.0z" stroke-width="2" fill-rule="nonzero"/><text xml:space="preserve" style="fill:#596c9f;font-family:微软雅黑;font-size:13.00pt"><tspan x="47.5" y="30.5">_mark: markOop</tspan></text></g><g transform="translate(211.000000,312.000000)" id="group4"><path stroke="#e1826b" id="shape5" fill="none" stroke-width="2" d="M114.0,24.0L114.0,24.0zM114.0,24.0L114.0,24.0zM114.0,24.0L114.0,24.0zM114.0,24.0L114.0,24.0zM114.0,24.0L114.0,24.0zM114.0,24.0L114.0,24.0zM114.0,24.0L114.0,24.0zM114.0,24.0L114.0,24.0z"/><path stroke="#e1826b" transform="translate(-0.056000,-0.228400)" id="shape6" fill="#ffefec" d="M.0,.0L228.0,.0L228.0,48.0L.0,48.0L.0,.0z" stroke-width="2" fill-rule="nonzero"/><text xml:space="preserve" style="fill:#596c9f;font-family:微软雅黑;font-size:13.00pt"><tspan x="48.5" y="30.5">_klass: klassOop</tspan></text></g><g transform="translate(211.000000,359.000000)" id="group7"><path stroke="#70b51f" id="shape8" fill="none" stroke-width="2" d="M114.0,54.5L114.0,54.5zM114.0,54.5L114.0,54.5zM114.0,54.5L114.0,54.5zM114.0,54.5L114.0,54.5zM114.0,54.5L114.0,54.5zM114.0,54.5L114.0,54.5zM114.0,54.5L114.0,54.5zM114.0,54.5L114.0,55.6L114.0,54.5z"/><path stroke="#70b51f" transform="translate(-0.055632,-0.518731)" id="shape9" fill="#edf6e8" d="M.0,.0L228.0,.0L228.0,109.0L.0,109.0L.0,.0z" stroke-width="2" fill-rule="nonzero"/><text xml:space="preserve" style="fill:#596c9f;font-family:微软雅黑;font-size:13.00pt"><tspan x="108.0" y="38.0">...</tspan><tspan x="60.5" y="61.0">instance data</tspan><tspan x="108.0" y="84.0">...</tspan></text></g><g transform="translate(211.000000,467.000000)" id="group10"><path stroke="#7384e1" id="shape11" fill="#edefff" d="M114.0,24.0L114.0,24.0zM114.0,24.0L114.0,24.0zM114.0,24.0L114.0,24.0zM114.0,24.0L114.0,24.0zM114.0,24.0L114.0,24.0zM114.0,24.0L114.0,24.0zM114.0,24.0L114.0,24.0zM114.0,24.0L90.7,25.9L114.0,24.0z" stroke-width="2" fill-rule="nonzero"/><path stroke="#7384e1" transform="translate(-0.056000,-0.228400)" id="shape12" fill="#edefff" d="M.0,.0L228.0,.0L228.0,48.0L.0,48.0L.0,.0z" stroke-width="2" fill-rule="nonzero"/><text xml:space="preserve" style="fill:#596c9f;font-family:微软雅黑;font-size:13.00pt"><tspan x="80.0" y="30.5">padding</tspan></text></g><g transform="matrix(-1.000000,0.000000,0.000000,1.000000,194.000000,264.000000)" id="shape13"><path stroke="#000000" fill="none" stroke-width="2" d="M.0,.0L9.0,.0C11.5,-0.4,14.0,.5,15.8,2.2C17.5,4.0,18.4,6.5,18.0,9.0L18.0,39.0C17.6,41.5,18.5,44.0,20.2,45.8C22.0,47.5,24.5,48.4,27.0,48.0C24.5,47.6,22.0,48.5,20.2,50.2C18.5,52.0,17.6,54.5,18.0,57.0L18.0,87.0C18.4,89.5,17.5,92.0,15.8,93.8C14.0,95.5,11.5,96.4,9.0,96.0L.0,96.0"/><text xml:space="preserve" transform="matrix(-1.00,0.00,0.00,1.00,98.1,0.0)" style="fill:#000000;font-family:微软雅黑;font-size:10.00pt"><tspan x="30.6" y="53.5">对象头</tspan></text></g><g transform="matrix(-1.000000,0.000000,0.000000,1.000000,194.000000,359.000000)" id="shape14"><path stroke="#000000" fill="none" stroke-width="2" d="M.0,.0L9.0,.0C11.5,-0.4,14.0,.5,15.8,2.2C17.5,4.0,18.4,6.5,18.0,9.0L18.0,41.5C17.6,44.0,18.5,46.5,20.2,48.3C22.0,50.0,24.5,50.9,27.0,50.5C24.5,50.1,22.0,51.0,20.2,52.7C18.5,54.5,17.6,57.0,18.0,59.5L18.0,97.0C18.4,99.5,17.5,102.0,15.8,103.8C14.0,105.5,11.5,106.4,9.0,106.0L.0,106.0"/><text xml:space="preserve" transform="matrix(-1.00,0.00,0.00,1.00,101.7,0.0)" style="fill:#000000;font-family:微软雅黑;font-size:10.00pt"><tspan x="38.8" y="46.5">对象</tspan><tspan x="25.8" y="65.5">实际数据</tspan></text></g><path stroke="#000000" transform="matrix(-1.000000,0.000000,0.000000,1.000000,194.000000,467.000000)" id="shape15" fill="none" stroke-width="2" d="M.0,.0L9.0,.0C11.5,-0.4,14.0,.5,15.8,2.2C17.5,4.0,18.4,6.5,18.0,9.0L18.0,15.0C17.6,17.5,18.5,20.0,20.2,21.8C22.0,23.5,24.5,24.4,27.0,24.0C24.5,23.6,22.0,24.5,20.2,26.2C18.5,28.0,17.6,30.5,18.0,33.0L18.0,39.0C18.4,41.5,17.5,44.0,15.8,45.8C14.0,47.5,11.5,48.4,9.0,48.0L.0,48.0"/><g transform="translate(265.000000,215.000000)" id="shape16"><text xml:space="preserve" style="fill:#000000;font-family:微软雅黑;font-size:10.00pt"><tspan x="16.0" y="23.0">JAVA 对象实例</tspan></text></g><g transform="translate(601.000000,263.919969)" id="group17"><path stroke="#e1826b" id="shape18" fill="none" stroke-width="2" d="M114.0,24.0L114.0,24.0zM114.0,24.0L114.0,24.0zM114.0,24.0L114.0,24.0zM114.0,24.0L114.0,24.0zM114.0,24.0L114.0,24.0zM114.0,24.0L114.0,24.0zM114.0,24.0L114.0,24.0zM114.0,24.0L114.0,24.0z"/><path stroke="#e1826b" transform="translate(-0.056000,-0.228400)" id="shape19" fill="#ffefec" d="M.0,.0L228.0,.0L228.0,48.0L.0,48.0L.0,.0z" stroke-width="2" fill-rule="nonzero"/><text xml:space="preserve" style="fill:#596c9f;font-family:微软雅黑;font-size:13.00pt"><tspan x="47.5" y="30.5">_mark: markOop</tspan></text></g><g transform="translate(601.000000,311.919969)" id="group20"><path stroke="#e1826b" id="shape21" fill="none" stroke-width="2" d="M114.0,24.0L114.0,24.0zM114.0,24.0L114.0,24.0zM114.0,24.0L114.0,24.0zM114.0,24.0L114.0,24.0zM114.0,24.0L114.0,24.0zM114.0,24.0L114.0,24.0zM114.0,24.0L114.0,24.0zM114.0,24.0L114.0,24.0z"/><path stroke="#e1826b" transform="translate(-0.056000,-0.228400)" id="shape22" fill="#ffefec" d="M.0,.0L228.0,.0L228.0,48.0L.0,48.0L.0,.0z" stroke-width="2" fill-rule="nonzero"/><text xml:space="preserve" style="fill:#596c9f;font-family:微软雅黑;font-size:13.00pt"><tspan x="48.5" y="30.5">_klass: klassOop</tspan></text></g><g transform="translate(601.000000,406.000000)" id="group23"><path stroke="#70b51f" id="shape24" fill="none" stroke-width="2" d="M114.0,54.5L114.0,54.5zM114.0,54.5L114.0,54.5zM114.0,54.5L114.0,54.5zM114.0,54.5L114.0,54.5zM114.0,54.5L114.0,54.5zM114.0,54.5L114.0,54.5zM114.0,54.5L114.0,54.5zM114.0,54.5L114.0,55.6L114.0,54.5z"/><path stroke="#70b51f" transform="translate(-0.056000,-0.518700)" id="shape25" fill="#edf6e8" d="M.0,.0L228.0,.0L228.0,109.0L.0,109.0L.0,.0z" stroke-width="2" fill-rule="nonzero"/><text xml:space="preserve" style="fill:#596c9f;font-family:微软雅黑;font-size:13.00pt"><tspan x="108.0" y="38.0">...</tspan><tspan x="74.5" y="61.0">array data</tspan><tspan x="108.0" y="84.0">...</tspan></text></g><g transform="translate(601.000000,516.000000)" id="group26"><path stroke="#7384e1" id="shape27" fill="#edefff" d="M114.0,24.0L114.0,24.0zM114.0,24.0L114.0,24.0zM114.0,24.0L114.0,24.0zM114.0,24.0L114.0,24.0zM114.0,24.0L114.0,24.0zM114.0,24.0L114.0,24.0zM114.0,24.0L114.0,24.0zM114.0,24.0L90.7,25.9L114.0,24.0z" stroke-width="2" fill-rule="nonzero"/><path stroke="#7384e1" transform="translate(-0.056000,-0.228400)" id="shape28" fill="#edefff" d="M.0,.0L228.0,.0L228.0,48.0L.0,48.0L.0,.0z" stroke-width="2" fill-rule="nonzero"/><text xml:space="preserve" style="fill:#596c9f;font-family:微软雅黑;font-size:13.00pt"><tspan x="80.0" y="30.5">padding</tspan></text></g><g transform="matrix(-1.000000,0.000000,0.000000,1.000000,590.000000,263.919969)" id="shape29"><path stroke="#000000" fill="none" stroke-width="2" d="M.0,.0L9.0,.0C11.5,-0.4,14.0,.5,15.8,2.2C17.5,4.0,18.4,6.5,18.0,9.0L18.0,59.5C17.6,62.0,18.5,64.5,20.2,66.3C22.0,68.1,24.5,68.9,27.0,68.5C24.5,68.2,22.0,69.0,20.2,70.8C18.5,72.6,17.6,75.1,18.0,77.5L18.0,128.1C18.4,130.6,17.5,133.1,15.8,134.8C14.0,136.6,11.5,137.4,9.0,137.1L.0,137.1"/><text xml:space="preserve" transform="matrix(-1.00,0.00,0.00,1.00,112.7,0.0)" style="fill:#000000;font-family:微软雅黑;font-size:10.00pt"><tspan x="37.8" y="74.0">对象头</tspan></text></g><g transform="matrix(-1.000000,0.000000,0.000000,1.000000,590.000000,406.000000)" id="shape30"><path stroke="#000000" fill="none" stroke-width="2" d="M.0,.0L9.0,.0C11.5,-0.4,14.0,.5,15.8,2.2C17.5,4.0,18.4,6.5,18.0,9.0L18.0,43.0C17.6,45.5,18.5,48.0,20.2,49.8C22.0,51.5,24.5,52.4,27.0,52.0C24.5,51.6,22.0,52.5,20.2,54.2C18.5,56.0,17.6,58.5,18.0,61.0L18.0,100.0C18.4,102.5,17.5,105.0,15.8,106.8C14.0,108.5,11.5,109.4,9.0,109.0L.0,109.0"/><text xml:space="preserve" transform="matrix(-1.00,0.00,0.00,1.00,102.7,0.0)" style="fill:#000000;font-family:微软雅黑;font-size:10.00pt"><tspan x="39.4" y="48.0">数组</tspan><tspan x="26.4" y="67.0">实际数据</tspan></text></g><path stroke="#000000" transform="matrix(-1.000000,0.000000,0.000000,1.000000,590.000000,516.000000)" id="shape31" fill="none" stroke-width="2" d="M.0,.0L9.0,.0C11.5,-0.4,14.0,.5,15.8,2.2C17.5,4.0,18.4,6.5,18.0,9.0L18.0,15.0C17.6,17.5,18.5,20.0,20.2,21.8C22.0,23.5,24.5,24.4,27.0,24.0C24.5,23.6,22.0,24.5,20.2,26.2C18.5,28.0,17.6,30.5,18.0,33.0L18.0,39.0C18.4,41.5,17.5,44.0,15.8,45.8C14.0,47.5,11.5,48.4,9.0,48.0L.0,48.0"/><g transform="translate(655.000000,215.000000)" id="shape32"><text xml:space="preserve" style="fill:#000000;font-family:微软雅黑;font-size:10.00pt"><tspan x="16.0" y="23.0">JAVA 数组实例</tspan></text></g><g transform="translate(601.000000,359.000000)" id="group33"><path stroke="#e1826b" id="shape34" fill="none" stroke-width="2" d="M114.0,24.0L114.0,24.0zM114.0,24.0L114.0,24.0zM114.0,24.0L114.0,24.0zM114.0,24.0L114.0,24.0zM114.0,24.0L114.0,24.0zM114.0,24.0L114.0,24.0zM114.0,24.0L114.0,24.0zM114.0,24.0L114.0,24.0z"/><path stroke="#e1826b" transform="translate(-0.056000,-0.228400)" id="shape35" fill="#ffefec" d="M.0,.0L228.0,.0L228.0,48.0L.0,48.0L.0,.0z" stroke-width="2" fill-rule="nonzero"/><text xml:space="preserve" style="fill:#596c9f;font-family:微软雅黑;font-size:13.00pt"><tspan x="69.0" y="30.5">_length: int</tspan></text></g><g transform="translate(470.000000,516.000000)" id="shape36"><text xml:space="preserve" style="fill:#000000;font-family:微软雅黑;font-size:10.00pt"><tspan x="47.0" y="23.0">对齐</tspan><tspan x="30.0" y="42.0">(可能存在)</tspan></text></g><g transform="translate(79.000000,467.000000)" id="shape37"><text xml:space="preserve" style="fill:#000000;font-family:微软雅黑;font-size:10.00pt"><tspan x="47.0" y="23.0">对齐</tspan><tspan x="30.0" y="42.0">(可能存在)</tspan></text></g></g></svg>
