<svg width="1132" viewBox="0 0 1132 804" xmlns="http://www.w3.org/2000/svg" xmlns:ev="http://www.w3.org/2001/xml-events" height="804" xmlns:xlink="http://www.w3.org/1999/xlink"><defs/><g transform="translate(5.5,5.5)" id="page3"><rect width="1123" x="0" y="0" fill="#ffffff" height="794"/><g transform="translate(211.000000,264.000000)" id="group1"><path stroke="#000000" id="shape2" fill="none" stroke-width="2" d="M114.0,24.0L114.0,24.0zM114.0,24.0L114.0,24.0zM114.0,24.0L114.0,24.0zM114.0,24.0L114.0,24.0zM114.0,24.0L114.0,24.0zM114.0,24.0L114.0,24.0zM114.0,24.0L114.0,24.0zM114.0,24.0L114.0,24.0z"/><path stroke="#000000" transform="translate(-0.055632,-0.228432)" id="shape3" fill="#ff947a" d="M.0,.0L228.0,.0L228.0,48.0L.0,48.0L.0,.0z" stroke-width="2" fill-rule="nonzero"/><text xml:space="preserve" style="fill:#000000;font-family:微软雅黑;font-size:13.00pt"><tspan x="47.5" y="30.5">_mark: markOop</tspan></text></g><g transform="translate(211.000000,312.000000)" id="group4"><path stroke="#000000" id="shape5" fill="none" stroke-width="2" d="M114.0,24.0L114.0,24.0zM114.0,24.0L114.0,24.0zM114.0,24.0L114.0,24.0zM114.0,24.0L114.0,24.0zM114.0,24.0L114.0,24.0zM114.0,24.0L114.0,24.0zM114.0,24.0L114.0,24.0zM114.0,24.0L114.0,24.0z"/><path stroke="#000000" transform="translate(-0.056000,-0.228400)" id="shape6" fill="#ff947a" d="M.0,.0L228.0,.0L228.0,48.0L.0,48.0L.0,.0z" stroke-width="2" fill-rule="nonzero"/><text xml:space="preserve" style="fill:#000000;font-family:微软雅黑;font-size:13.00pt"><tspan x="48.5" y="30.5">_klass: klassOop</tspan></text></g><g transform="translate(211.000000,359.000000)" id="group7"><path stroke="#000000" id="shape8" fill="none" stroke-width="2" d="M114.0,54.5L114.0,54.5zM114.0,54.5L114.0,54.5zM114.0,54.5L114.0,54.5zM114.0,54.5L114.0,54.5zM114.0,54.5L114.0,54.5zM114.0,54.5L114.0,54.5zM114.0,54.5L114.0,54.5zM114.0,54.5L114.0,55.6L114.0,54.5z"/><path stroke="#000000" transform="translate(-0.055632,-0.518731)" id="shape9" fill="#77b8a0" d="M.0,.0L228.0,.0L228.0,109.0L.0,109.0L.0,.0z" stroke-width="2" fill-rule="nonzero"/><text xml:space="preserve" style="fill:#000000;font-family:微软雅黑;font-size:13.00pt"><tspan x="108.0" y="38.0">...</tspan><tspan x="60.5" y="61.0">instance data</tspan><tspan x="108.0" y="84.0">...</tspan></text></g><g transform="translate(211.000000,467.000000)" id="group10"><path stroke="#000000" id="shape11" fill="#8397ff" d="M114.0,24.0L114.0,24.0zM114.0,24.0L114.0,24.0zM114.0,24.0L114.0,24.0zM114.0,24.0L114.0,24.0zM114.0,24.0L114.0,24.0zM114.0,24.0L114.0,24.0zM114.0,24.0L114.0,24.0zM114.0,24.0L90.7,25.9L114.0,24.0z" stroke-width="2" fill-rule="nonzero"/><path stroke="#000000" transform="translate(-0.056000,-0.228400)" id="shape12" fill="#8397ff" d="M.0,.0L228.0,.0L228.0,48.0L.0,48.0L.0,.0z" stroke-width="2" fill-rule="nonzero"/><text xml:space="preserve" style="fill:#000000;font-family:微软雅黑;font-size:13.00pt"><tspan x="80.0" y="30.5">padding</tspan></text></g><g transform="matrix(-1.000000,0.000000,0.000000,1.000000,194.000000,264.000000)" id="shape13"><path stroke="#000000" fill="none" stroke-width="2" d="M.0,.0L9.0,.0C11.5,-0.4,14.0,.5,15.8,2.2C17.5,4.0,18.4,6.5,18.0,9.0L18.0,39.0C17.6,41.5,18.5,44.0,20.2,45.8C22.0,47.5,24.5,48.4,27.0,48.0C24.5,47.6,22.0,48.5,20.2,50.2C18.5,52.0,17.6,54.5,18.0,57.0L18.0,87.0C18.4,89.5,17.5,92.0,15.8,93.8C14.0,95.5,11.5,96.4,9.0,96.0L.0,96.0"/><text xml:space="preserve" transform="matrix(-1.00,0.00,0.00,1.00,98.1,0.0)" style="fill:#000000;font-family:微软雅黑;font-size:10.00pt"><tspan x="30.6" y="53.5">对象头</tspan></text></g><g transform="matrix(-1.000000,0.000000,0.000000,1.000000,194.000000,359.000000)" id="shape14"><path stroke="#000000" fill="none" stroke-width="2" d="M.0,.0L9.0,.0C11.5,-0.4,14.0,.5,15.8,2.2C17.5,4.0,18.4,6.5,18.0,9.0L18.0,43.0C17.6,45.5,18.5,48.0,20.2,49.8C22.0,51.5,24.5,52.4,27.0,52.0C24.5,51.6,22.0,52.5,20.2,54.2C18.5,56.0,17.6,58.5,18.0,61.0L18.0,100.0C18.4,102.5,17.5,105.0,15.8,106.8C14.0,108.5,11.5,109.4,9.0,109.0L.0,109.0"/><text xml:space="preserve" transform="matrix(-1.00,0.00,0.00,1.00,102.7,0.0)" style="fill:#000000;font-family:微软雅黑;font-size:10.00pt"><tspan x="39.4" y="48.0">对象</tspan><tspan x="26.4" y="67.0">实际数据</tspan></text></g><g transform="matrix(-1.000000,0.000000,0.000000,1.000000,194.000000,467.000000)" id="shape15"><path stroke="#000000" fill="none" stroke-width="2" d="M.0,.0L9.0,.0C11.5,-0.4,14.0,.5,15.8,2.2C17.5,4.0,18.4,6.5,18.0,9.0L18.0,15.0C17.6,17.5,18.5,20.0,20.2,21.8C22.0,23.5,24.5,24.4,27.0,24.0C24.5,23.6,22.0,24.5,20.2,26.2C18.5,28.0,17.6,30.5,18.0,33.0L18.0,39.0C18.4,41.5,17.5,44.0,15.8,45.8C14.0,47.5,11.5,48.4,9.0,48.0L.0,48.0"/><text xml:space="preserve" transform="matrix(-1.00,0.00,0.00,1.00,81.1,0.0)" style="fill:#000000;font-family:微软雅黑;font-size:10.00pt"><tspan x="28.5" y="20.0">对齐</tspan><tspan x="11.5" y="39.0">(可能存在)</tspan></text></g></g></svg>
