<?xml version="1.0" standalone="no"?>
<!DOCTYPE svg PUBLIC "-//W3C//DTD SVG 20010904//EN"
 "http://www.w3.org/TR/2001/REC-SVG-20010904/DTD/svg10.dtd">
<svg version="1.0" xmlns="http://www.w3.org/2000/svg"
 width="1500.000000pt" height="728.000000pt" viewBox="0 0 1500.000000 728.000000"
 preserveAspectRatio="xMidYMid meet">

<g transform="translate(0.000000,728.000000) scale(0.100000,-0.100000)"
fill="#000000" stroke="none">
<path d="M514 6983 c-88 -3 -104 -7 -120 -24 -18 -20 -19 -50 -22 -612 -2
-419 1 -600 9 -619 6 -15 24 -31 41 -37 43 -15 7312 -15 7355 -1 17 6 35 22
42 36 8 18 11 195 11 614 l0 589 -24 28 -24 28 -3584 0 c-1970 1 -3629 -1
-3684 -2z m7262 -47 c18 -14 19 -32 19 -599 0 -480 -2 -587 -14 -600 -12 -16
-280 -17 -3682 -17 l-3668 0 -15 22 c-14 20 -16 93 -16 595 0 560 0 573 20
593 20 20 33 20 3678 20 3143 0 3661 -2 3678 -14z"/>
<path d="M5945 6413 c25 -67 28 -101 12 -149 -19 -58 -14 -72 8 -21 19 46 19
105 0 151 -15 35 -34 53 -20 19z"/>
<path d="M4680 6394 c-8 -15 -15 -48 -15 -73 0 -47 21 -111 36 -111 4 0 1 16
-7 35 -17 40 -18 108 -3 136 6 11 9 25 7 30 -2 6 -10 -1 -18 -17z"/>
<path d="M4838 6403 c-5 -20 -14 -23 -55 -25 l-48 -1 43 -4 c23 -2 42 -8 42
-12 0 -5 -19 -29 -41 -55 -23 -26 -39 -49 -37 -52 5 -5 64 58 85 92 11 16 12
13 10 -26 -2 -38 -6 -45 -27 -51 l-25 -6 25 -4 c15 -3 27 -13 31 -29 l7 -25 1
28 c1 22 6 27 29 28 l27 1 -25 7 c-21 6 -25 13 -27 51 l-3 45 18 -25 c33 -47
64 -80 74 -80 6 0 -8 20 -31 45 -22 24 -41 49 -41 54 0 5 17 12 38 14 34 3 34
4 -10 5 -40 2 -47 5 -50 25 l-3 22 -7 -22z"/>
<path d="M5000 6391 c0 -16 -6 -32 -12 -34 -10 -4 -10 -6 0 -6 15 -1 17 -91 2
-91 -5 0 -10 -4 -10 -9 0 -6 13 -5 32 1 18 6 27 13 20 16 -16 5 -16 79 1 85
10 4 10 6 0 6 -8 1 -13 14 -13 31 0 17 -4 30 -10 30 -5 0 -10 -13 -10 -29z"/>
<path d="M5121 6393 c0 -18 -3 -33 -5 -33 -2 0 -11 -3 -20 -6 -12 -5 -16 0
-16 22 0 28 -11 26 -17 -4 -8 -37 -1 -131 11 -150 9 -15 71 -16 97 -2 10 6 19
18 19 28 -1 16 -1 16 -11 0 -7 -13 -23 -18 -55 -18 l-45 0 3 52 c2 40 7 54 20
56 13 3 18 -6 21 -40 l4 -43 1 46 c2 43 19 68 36 52 10 -11 6 -48 -6 -62 -11
-11 -10 -13 2 -9 10 3 16 20 18 50 3 44 2 45 -22 41 -21 -4 -25 -1 -29 23 -4
28 -4 28 -6 -3z"/>
<path d="M5316 6407 c5 -15 -1 -17 -47 -18 -47 -1 -50 -2 -19 -8 34 -6 35 -8
32 -46 -2 -24 -14 -57 -32 -82 -16 -24 -26 -43 -21 -43 13 0 39 34 56 73 14
34 19 37 56 37 l40 0 -3 -42 c-2 -34 -8 -45 -28 -55 -23 -12 -23 -13 -4 -13
30 0 43 19 50 74 l7 46 -52 0 c-49 0 -52 2 -49 23 3 19 10 23 63 28 46 4 51 6
21 7 -22 1 -48 10 -58 19 -18 16 -18 16 -12 0z"/>
<path d="M5470 6412 c0 -5 7 -15 15 -22 8 -7 15 -8 15 -2 0 5 -7 15 -15 22 -8
7 -15 8 -15 2z"/>
<path d="M5580 6405 c0 -9 -9 -15 -25 -15 -14 0 -25 -4 -25 -10 0 -5 11 -10
25 -10 39 0 34 -37 -7 -49 l-33 -9 28 -1 29 -1 -26 -46 -26 -47 64 7 c48 5 66
3 69 -6 4 -10 6 -10 6 0 1 14 -27 72 -34 72 -3 0 -3 -11 1 -24 5 -21 2 -24
-33 -28 -21 -3 -39 -4 -41 -3 -2 1 5 19 15 39 16 32 22 36 57 36 40 0 43 14 3
15 -15 0 -23 7 -25 23 -3 19 1 22 27 22 17 0 31 5 31 10 0 6 -13 10 -30 10
-20 0 -30 5 -30 15 0 8 -4 15 -10 15 -5 0 -10 -7 -10 -15z"/>
<path d="M5731 6403 c0 -14 -8 -23 -18 -24 -17 0 -17 -1 0 -7 16 -7 16 -10 -3
-47 -25 -49 -25 -57 0 -25 l20 25 0 -59 c0 -80 7 -68 12 22 3 49 9 77 19 83
12 7 11 9 -3 9 -9 0 -19 10 -21 23 l-4 22 -2 -22z"/>
<path d="M5821 6399 c-1 -18 -8 -29 -23 -34 l-23 -8 23 -4 c24 -5 31 -33 7
-33 -8 0 -15 -5 -15 -11 0 -5 5 -7 11 -3 13 7 29 -13 29 -37 0 -9 -12 -21 -26
-28 -15 -6 -24 -15 -20 -18 3 -4 17 0 31 7 22 12 27 11 46 -6 20 -18 21 -18
35 0 7 11 11 22 8 25 -3 3 -9 -1 -13 -8 -10 -16 -31 -6 -31 13 0 8 7 19 15 26
9 7 13 15 10 18 -3 3 -14 -3 -26 -14 -21 -19 -21 -19 -18 6 3 18 12 27 34 32
29 6 29 7 -5 5 -26 -2 -36 2 -38 16 -2 11 3 17 15 17 10 0 25 5 33 11 11 8 7
9 -17 5 -29 -5 -32 -3 -36 22 l-4 27 -2 -26z"/>
<path d="M5860 6411 c0 -5 5 -13 10 -16 6 -3 10 -2 10 4 0 5 -4 13 -10 16 -5
3 -10 2 -10 -4z"/>
<path d="M2222 6313 l2 -88 5 75 6 75 53 -73 c29 -39 54 -72 57 -72 3 0 4 39
3 88 -1 61 -3 71 -5 32 -6 -88 -10 -89 -60 -17 -25 37 -49 67 -54 67 -5 0 -8
-39 -7 -87z"/>
<path d="M2610 6390 c0 -5 5 -10 10 -10 6 0 10 5 10 10 0 6 -4 10 -10 10 -5 0
-10 -4 -10 -10z"/>
<path d="M3002 6313 c1 -73 2 -78 5 -28 2 33 8 64 14 70 6 5 9 4 9 -5 0 -23
50 -124 57 -116 4 3 19 34 34 69 l28 62 1 -67 c0 -39 4 -68 10 -68 6 0 10 35
10 85 0 52 -4 85 -10 85 -6 0 -26 -33 -44 -72 l-33 -73 -17 38 c-9 20 -23 53
-31 72 -25 58 -35 42 -33 -52z"/>
<path d="M3420 6314 c0 -54 4 -83 10 -79 6 3 10 26 10 51 0 32 5 46 16 51 29
11 49 -12 55 -63 l6 -49 1 57 c2 48 -1 59 -18 68 -14 8 -26 8 -40 0 -18 -10
-20 -8 -20 20 0 16 -4 30 -10 30 -6 0 -10 -35 -10 -86z"/>
<path d="M3790 6369 c0 -24 -4 -30 -15 -25 -8 3 -21 9 -29 12 -20 8 -56 -31
-56 -60 0 -13 9 -34 19 -47 17 -22 22 -23 50 -13 22 9 31 9 35 0 2 -6 5 28 5
77 1 48 -1 87 -4 87 -3 0 -5 -14 -5 -31z m-5 -63 c8 -24 6 -31 -14 -47 -32
-26 -61 -10 -61 35 0 40 7 48 39 44 18 -2 29 -12 36 -32z"/>
<path d="M3933 6393 c-7 -2 -13 -15 -13 -28 0 -27 13 -38 63 -55 30 -9 38 -16
35 -33 -5 -33 -66 -37 -90 -5 -9 13 -18 17 -18 11 -1 -43 82 -69 114 -37 31
30 17 58 -39 77 -47 16 -67 43 -45 57 26 16 58 11 74 -12 11 -16 16 -18 16 -7
0 32 -53 50 -97 32z"/>
<path d="M4411 6320 c1 -44 5 -83 10 -86 5 -3 9 6 9 20 0 39 20 42 49 7 35
-42 50 -40 17 3 -32 42 -32 49 -3 69 12 9 17 16 10 16 -6 1 -25 -11 -42 -25
l-31 -26 0 51 c0 28 -5 51 -10 51 -6 0 -10 -32 -9 -80z"/>
<path d="M2536 6373 c-4 -13 -13 -23 -19 -23 -7 0 -4 -5 6 -11 12 -7 17 -23
17 -54 0 -42 13 -65 28 -50 4 4 1 10 -5 12 -8 3 -13 23 -13 49 0 35 4 44 17
44 15 0 15 1 1 13 -9 6 -18 19 -20 27 -4 11 -7 9 -12 -7z"/>
<path d="M3350 6372 c0 -11 -6 -23 -12 -25 -10 -4 -10 -6 0 -6 7 -1 12 -17 12
-45 0 -43 22 -78 38 -61 4 4 1 10 -5 12 -8 3 -13 22 -13 48 0 26 5 45 13 47 8
2 5 11 -10 27 -22 23 -23 23 -23 3z"/>
<path d="M4080 6376 c0 -8 -6 -17 -12 -20 -10 -5 -10 -7 0 -12 7 -3 12 -25 12
-54 0 -35 4 -50 16 -54 24 -9 32 4 11 15 -14 8 -16 18 -11 47 4 20 12 40 18
44 8 5 7 8 -1 8 -7 0 -13 6 -13 14 0 8 -4 18 -10 21 -5 3 -10 0 -10 -9z"/>
<path d="M2404 6346 c-10 -8 -15 -18 -11 -22 4 -5 12 -3 16 5 11 18 55 10 59
-11 3 -14 -4 -18 -32 -18 -41 0 -66 -31 -45 -56 13 -16 55 -19 64 -4 5 8 11 7
21 -1 12 -10 14 -3 14 39 0 73 -38 103 -86 68z m66 -71 c0 -18 -34 -37 -54
-29 -16 6 -21 26 -9 37 13 14 63 7 63 -8z"/>
<path d="M2802 6344 c-44 -30 -19 -114 34 -114 20 0 44 17 44 32 0 5 -10 2
-23 -7 -21 -13 -25 -13 -45 1 -34 24 -26 34 28 34 52 0 62 11 38 42 -20 25
-51 30 -76 12z m66 -26 c3 -15 -4 -18 -32 -18 -34 0 -47 15 -29 34 13 13 58 1
61 -16z"/>
<path d="M3220 6340 c-39 -39 -15 -110 37 -110 11 0 28 9 38 20 21 24 9 27
-16 4 -14 -12 -22 -13 -38 -4 -38 20 -26 40 24 40 38 0 45 3 45 19 0 20 -35
51 -57 51 -7 0 -22 -9 -33 -20z m68 -22 c3 -15 -4 -18 -32 -18 -34 0 -47 15
-29 34 13 13 58 1 61 -16z"/>
<path d="M3590 6353 c-42 -15 -53 -70 -20 -103 35 -35 83 -20 95 32 5 21 1 33
-19 52 -26 27 -30 28 -56 19z m48 -25 c18 -18 14 -53 -7 -72 -38 -34 -76 13
-55 68 7 19 45 21 62 4z"/>
<path d="M4178 6353 c-10 -2 -18 -12 -18 -21 0 -12 3 -13 12 -4 20 20 58 15
58 -8 0 -15 -7 -20 -27 -20 -39 0 -55 -13 -51 -41 3 -27 40 -38 62 -20 9 7 16
7 24 -1 9 -9 12 1 12 45 0 45 -4 58 -19 67 -20 10 -25 11 -53 3z m52 -78 c0
-18 -34 -37 -54 -29 -16 6 -21 26 -9 37 13 14 63 7 63 -8z"/>
<path d="M4300 6340 c-25 -25 -26 -72 -2 -93 22 -20 53 -22 70 -5 20 20 13 30
-10 14 -34 -24 -60 -4 -56 42 2 30 7 38 26 40 13 2 30 -2 38 -8 9 -9 14 -9 14
-2 0 12 -31 32 -49 32 -6 0 -20 -9 -31 -20z"/>
<path d="M4552 6348 c-21 -21 -13 -39 22 -53 43 -18 50 -29 31 -45 -12 -10
-20 -9 -41 5 -17 11 -25 13 -22 4 13 -40 88 -36 88 5 0 18 -9 27 -41 39 -23 9
-38 21 -34 27 8 14 48 13 63 -2 9 -9 12 -9 12 0 0 13 -31 32 -52 32 -8 0 -19
-5 -26 -12z"/>
<path d="M5470 6345 c7 -9 15 -13 17 -11 7 7 -7 26 -19 26 -6 0 -6 -6 2 -15z"/>
<path d="M2610 6290 c0 -33 4 -60 10 -60 6 0 10 27 10 60 0 33 -4 60 -10 60
-6 0 -10 -27 -10 -60z"/>
<path d="M2660 6343 c0 -6 6 -26 14 -44 7 -19 16 -43 20 -53 4 -13 10 -16 17
-9 15 15 50 113 40 113 -5 0 -15 -17 -21 -37 -18 -56 -26 -59 -40 -16 -13 39
-30 66 -30 46z"/>
<path d="M5486 6282 c-14 -23 -25 -62 -17 -62 10 0 34 61 27 67 -2 3 -7 0 -10
-5z"/>
<path d="M8081 6961 c-11 -11 -22 -39 -26 -63 -3 -24 -5 -297 -3 -606 l3 -564
28 -24 28 -24 3286 2 3285 3 19 24 c18 22 19 47 19 625 0 592 0 603 -20 624
l-21 22 -3289 0 c-3236 0 -3290 0 -3309 -19z m6593 -33 c14 -20 16 -93 16
-600 0 -511 -2 -578 -16 -592 -14 -15 -326 -16 -3288 -16 -2531 0 -3275 3
-3284 12 -9 9 -12 156 -12 599 0 521 2 589 16 603 14 15 326 16 3284 16 l3269
0 15 -22z"/>
<path d="M12879 6395 c-4 -37 -7 -41 -39 -46 l-35 -6 37 -2 37 -1 4 -67 3 -68
2 68 2 67 33 1 32 1 -30 7 c-26 5 -31 12 -36 46 l-5 40 -5 -40z"/>
<path d="M13460 6426 c0 -2 7 -20 15 -39 18 -45 18 -90 0 -142 -12 -35 -12
-38 1 -20 35 46 37 124 5 183 -10 20 -21 29 -21 18z"/>
<path d="M12202 6395 c-17 -36 -15 -121 3 -155 22 -43 27 -37 10 11 -19 52
-19 90 -1 134 17 40 5 48 -12 10z"/>
<path d="M12290 6410 c-17 -5 -19 -8 -7 -9 27 -2 22 -41 -5 -42 -17 -1 -19 -2
-5 -6 20 -5 21 -19 2 -53 -21 -37 -18 -49 4 -16 l20 30 4 -55 3 -54 2 54 c2
46 4 52 17 41 8 -7 15 -8 15 -2 0 5 -7 15 -16 23 -14 12 -14 14 2 26 16 12 16
13 1 13 -22 0 -22 29 1 46 20 16 4 17 -38 4z"/>
<path d="M12367 6414 c-4 -4 -7 -20 -7 -36 0 -27 2 -28 51 -28 l50 0 -3 33
c-3 30 -6 32 -43 35 -23 2 -44 0 -48 -4z m73 -29 c0 -21 -5 -25 -28 -25 -16 0
-32 3 -35 6 -13 13 14 44 38 44 20 0 25 -5 25 -25z"/>
<path d="M12564 6413 l-41 -4 -5 -77 c-3 -42 -9 -85 -13 -94 -4 -10 -3 -18 3
-18 13 0 22 49 22 116 l0 54 90 0 c53 0 90 4 90 10 0 6 -18 10 -39 10 -22 0
-45 1 -53 3 -7 2 -32 2 -54 0z"/>
<path d="M12774 6401 c21 -23 26 -26 26 -11 0 5 -10 15 -22 21 -23 12 -23 12
-4 -10z"/>
<path d="M12990 6411 c0 -6 4 -13 10 -16 6 -3 7 1 4 9 -7 18 -14 21 -14 7z"/>
<path d="M13031 6403 c-1 -18 -7 -23 -28 -24 -17 -1 -21 -3 -10 -6 21 -6 21
-11 0 -37 -13 -15 -10 -14 10 3 l27 24 1 -24 c1 -17 3 -19 6 -7 4 15 8 16 26
7 20 -9 20 -9 5 4 -10 8 -18 17 -18 20 0 3 8 8 18 10 13 4 12 5 -5 6 -14 1
-23 9 -26 24 l-4 22 -2 -22z"/>
<path d="M13065 6409 c-4 -6 -5 -12 -2 -15 2 -3 7 2 10 11 7 17 1 20 -8 4z"/>
<path d="M13108 6388 c-3 -18 -8 -41 -13 -51 -5 -13 -4 -16 8 -11 24 9 33 -50
13 -81 -19 -28 -10 -34 10 -7 12 16 14 15 38 -7 31 -29 35 -17 5 15 -18 20
-19 26 -9 65 7 24 16 52 21 62 8 14 5 17 -21 17 -20 0 -30 5 -30 15 0 29 -18
15 -22 -17z m46 -17 c8 -12 -4 -71 -14 -71 -11 0 -23 57 -15 70 8 12 22 13 29
1z"/>
<path d="M13240 6391 c0 -29 3 -31 36 -31 33 0 35 2 32 28 -2 22 -8 28 -35 30
-31 3 -33 1 -33 -27z m48 -4 c2 -10 -3 -17 -12 -17 -18 0 -29 16 -21 31 9 14
29 6 33 -14z"/>
<path d="M13340 6391 c0 -29 3 -31 36 -31 33 0 35 2 32 28 -2 22 -8 28 -35 30
-31 3 -33 1 -33 -27z m58 2 c5 -17 -26 -29 -40 -15 -6 6 -7 15 -3 22 9 14 37
9 43 -7z"/>
<path d="M9270 6320 c0 -47 4 -80 10 -80 6 0 10 13 10 29 0 26 4 29 42 34 47
6 71 30 62 61 -9 30 -23 36 -76 36 l-48 0 0 -80z m103 49 c18 -29 1 -49 -43
-49 -39 0 -40 1 -40 36 0 34 1 35 36 32 21 -2 42 -10 47 -19z"/>
<path d="M10317 6383 c-24 -27 -31 -70 -17 -104 22 -53 81 -66 118 -26 12 13
22 27 22 32 0 5 -9 -1 -20 -13 -43 -46 -110 -17 -110 46 0 62 67 94 105 52 10
-11 20 -18 23 -15 3 3 -3 14 -13 25 -23 26 -85 27 -108 3z"/>
<path d="M11260 6321 c0 -82 16 -121 22 -54 3 33 7 38 31 41 35 4 52 -10 62
-51 l8 -32 4 28 c3 16 0 34 -6 41 -7 9 -7 22 1 43 17 46 -1 63 -68 63 l-54 0
0 -79z m98 60 c8 -4 12 -19 10 -32 -2 -20 -9 -24 -45 -27 l-43 -3 0 35 c0 34
2 36 33 36 17 0 38 -4 45 -9z"/>
<path d="M11700 6390 c0 -5 5 -10 10 -10 6 0 10 5 10 10 0 6 -4 10 -10 10 -5
0 -10 -4 -10 -10z"/>
<path d="M10890 6371 c0 -11 -6 -22 -12 -24 -10 -4 -10 -6 0 -6 7 -1 12 -17
12 -45 0 -43 22 -78 38 -61 4 4 1 10 -5 12 -8 3 -13 22 -13 48 0 33 4 45 18
48 16 4 16 5 0 6 -11 1 -18 9 -18 21 0 11 -4 20 -10 20 -5 0 -10 -9 -10 -19z"/>
<path d="M11901 6377 c-1 -10 -8 -20 -17 -24 -9 -3 -11 -8 -5 -12 5 -4 12 -26
15 -50 5 -46 20 -71 33 -56 5 4 2 10 -4 12 -8 3 -13 23 -13 49 0 35 4 44 17
44 15 0 15 1 1 13 -9 6 -18 19 -21 27 -4 12 -6 11 -6 -3z"/>
<path d="M12609 6361 c47 -5 52 -8 38 -19 -10 -8 -25 -11 -39 -7 -23 7 -23 7
-3 -9 19 -15 18 -15 -18 -16 -23 0 -36 -4 -32 -10 3 -5 19 -10 36 -10 26 0 29
-3 29 -30 0 -22 -6 -33 -22 -40 -23 -10 -23 -10 2 -7 21 2 25 8 28 39 2 21 9
39 18 42 22 8 37 -3 29 -21 -4 -13 -3 -14 10 -3 25 21 18 40 -15 40 -34 0 -39
14 -10 30 37 20 21 30 -42 28 l-63 -1 54 -6z"/>
<path d="M9455 6350 c-3 -5 -12 -7 -20 -3 -12 4 -15 -6 -15 -50 0 -69 18 -85
22 -20 2 39 7 50 26 58 12 5 22 13 22 17 0 11 -28 10 -35 -2z"/>
<path d="M9532 6344 c-44 -31 -19 -114 35 -114 50 0 73 85 31 114 -12 9 -27
16 -33 16 -6 0 -21 -7 -33 -16z m68 -24 c24 -45 -19 -92 -58 -64 -24 17 -27
35 -12 65 14 25 56 25 70 -1z"/>
<path d="M9672 6345 c-15 -11 -22 -26 -22 -49 0 -42 21 -60 60 -54 27 4 31 2
28 -16 -3 -24 -43 -35 -61 -17 -20 20 -31 11 -12 -9 10 -11 26 -20 37 -20 38
0 58 35 58 104 0 55 -3 65 -17 64 -10 0 -25 2 -33 6 -8 3 -25 -1 -38 -9z m66
-38 c6 -54 -48 -80 -69 -33 -16 35 4 68 39 64 21 -2 28 -9 30 -31z"/>
<path d="M9825 6350 c-3 -5 -12 -7 -20 -3 -12 4 -15 -6 -15 -57 0 -38 4 -59
10 -55 6 3 10 21 10 40 0 46 9 65 31 65 10 0 19 5 19 10 0 13 -27 13 -35 0z"/>
<path d="M9894 6346 c-10 -8 -15 -18 -11 -22 4 -5 12 -3 16 5 11 18 55 10 59
-11 3 -14 -3 -18 -27 -18 -40 0 -65 -25 -51 -51 11 -20 54 -26 65 -9 5 8 11 7
21 -1 12 -10 14 -3 14 39 0 73 -38 103 -86 68z m66 -71 c0 -18 -34 -37 -54
-29 -16 6 -21 26 -9 37 13 14 63 7 63 -8z"/>
<path d="M10045 6350 c-3 -5 -12 -7 -20 -3 -12 4 -15 -7 -15 -58 0 -72 17 -71
22 1 3 40 6 45 28 45 23 0 25 -4 28 -53 4 -65 22 -59 22 7 0 42 -3 49 -25 59
-31 14 -32 14 -40 2z"/>
<path d="M10125 6351 c-3 -5 5 -11 17 -13 20 -3 24 -11 29 -58 l6 -55 1 56 c2
54 -9 79 -34 79 -7 0 -15 -4 -19 -9z"/>
<path d="M10492 6344 c-44 -31 -19 -114 35 -114 50 0 73 85 31 114 -12 9 -27
16 -33 16 -6 0 -21 -7 -33 -16z m68 -23 c5 -11 10 -24 10 -30 0 -20 -39 -51
-56 -44 -23 8 -36 50 -24 74 14 25 56 25 70 0z"/>
<path d="M10780 6351 c-8 -6 -18 -7 -22 -5 -4 3 -8 -12 -9 -33 0 -21 -2 -46
-4 -55 -2 -10 1 -20 6 -24 5 -3 9 14 9 38 0 54 11 71 41 66 21 -3 24 -9 27
-56 2 -32 7 -50 13 -46 6 3 7 25 3 52 -9 67 -28 85 -64 63z"/>
<path d="M10982 6344 c-44 -30 -19 -114 34 -114 20 0 44 17 44 32 0 5 -10 2
-23 -7 -21 -13 -25 -13 -45 1 -31 22 -19 34 34 34 42 0 45 2 39 23 -7 24 -32
47 -50 47 -6 0 -21 -7 -33 -16z m66 -26 c3 -15 -4 -18 -32 -18 -34 0 -47 15
-29 34 13 13 58 1 61 -16z"/>
<path d="M11130 6351 c-8 -6 -18 -7 -22 -5 -4 3 -7 -23 -7 -58 2 -61 2 -61 8
-18 8 53 17 70 37 70 8 0 14 5 14 10 0 12 -10 13 -30 1z"/>
<path d="M11440 6340 c-25 -25 -26 -72 -2 -93 22 -20 53 -22 70 -5 20 20 13
30 -10 14 -24 -17 -58 -6 -58 19 0 11 12 15 45 15 51 0 59 16 25 50 -11 11
-27 20 -35 20 -8 0 -24 -9 -35 -20z m68 -22 c3 -15 -4 -18 -32 -18 -34 0 -47
15 -29 34 13 13 58 1 61 -16z"/>
<path d="M11571 6341 c-44 -44 -11 -109 49 -98 32 7 41 -8 18 -31 -16 -16 -55
-15 -61 1 -2 6 -8 8 -13 4 -15 -14 28 -39 56 -32 35 9 40 21 40 95 0 56 -3 66
-17 66 -10 1 -26 4 -35 8 -11 5 -24 0 -37 -13z m69 -17 c10 -11 11 -23 4 -42
-17 -49 -74 -36 -74 18 0 14 3 30 7 33 12 13 50 7 63 -9z"/>
<path d="M11773 6353 c-26 -10 -14 -44 21 -58 43 -18 52 -31 29 -43 -20 -10
-44 -5 -55 12 -5 7 -8 4 -8 -6 0 -20 38 -33 69 -23 14 4 21 15 21 31 0 19 -6
26 -30 30 -39 8 -59 31 -35 40 10 4 26 2 37 -5 27 -16 38 -3 14 15 -20 14 -41
17 -63 7z"/>
<path d="M11980 6340 c-25 -25 -26 -72 -2 -93 22 -20 53 -22 70 -5 20 20 13
30 -10 14 -24 -17 -58 -6 -58 19 0 11 12 15 45 15 51 0 59 16 25 50 -11 11
-27 20 -35 20 -8 0 -24 -9 -35 -20z m68 -22 c3 -15 -4 -18 -32 -18 -34 0 -47
15 -29 34 13 13 58 1 61 -16z"/>
<path d="M12130 6351 c-8 -6 -18 -7 -22 -5 -4 3 -7 -23 -7 -58 2 -61 2 -61 8
-18 8 56 17 70 42 70 11 0 17 5 14 10 -8 12 -16 12 -35 1z"/>
<path d="M10610 6307 c0 -24 6 -52 14 -63 13 -16 18 -17 45 -8 22 9 31 9 35 0
2 -6 4 18 4 54 -1 43 -3 52 -5 25 -5 -48 -18 -65 -49 -65 -22 0 -24 4 -24 50
0 28 -4 50 -10 50 -5 0 -10 -19 -10 -43z"/>
<path d="M11700 6296 c0 -30 5 -58 10 -61 6 -4 10 17 10 54 0 34 -4 61 -10 61
-5 0 -10 -24 -10 -54z"/>
<path d="M12753 6343 c14 -4 17 -16 17 -64 0 -57 1 -59 20 -47 11 7 20 16 20
21 0 4 -4 5 -10 2 -6 -4 -10 13 -10 44 0 49 -1 51 -27 50 -17 -1 -21 -3 -10
-6z"/>
<path d="M13295 6340 c-3 -5 -23 -11 -43 -11 -36 -1 -37 -1 -7 -8 l30 -7 -30
-17 c-16 -9 -24 -16 -17 -17 7 0 12 -13 12 -32 0 -31 2 -33 35 -34 33 0 35 1
35 33 0 29 -3 33 -27 33 -25 0 -26 0 -8 20 23 25 63 25 95 0 l25 -20 -26 0
c-20 0 -28 -6 -31 -24 -7 -33 1 -41 39 -41 29 0 32 3 35 37 3 31 0 39 -22 49
l-25 13 29 4 28 4 -23 16 c-16 11 -24 12 -27 4 -4 -14 -52 -16 -52 -2 0 6 -4
10 -9 10 -6 0 -13 -4 -16 -10z m5 -85 c0 -9 -7 -18 -16 -22 -18 -7 -39 11 -30
26 11 17 46 13 46 -4z m95 -5 c0 -8 -10 -16 -22 -18 -18 -3 -23 2 -23 18 0 16
5 21 23 18 12 -2 22 -10 22 -18z"/>
<path d="M12378 6313 c12 -2 22 -11 22 -18 0 -7 -10 -16 -22 -18 l-23 -4 23
-2 c37 -2 29 -39 -10 -44 -18 -2 -1 -4 37 -4 39 0 58 2 43 4 -35 5 -39 40 -5
46 l22 4 -22 2 c-13 0 -23 7 -23 15 0 8 10 17 23 19 12 2 -3 4 -33 4 -30 0
-45 -2 -32 -4z"/>
<path d="M13000 6299 c-14 -4 -19 -7 -12 -8 6 -1 12 -10 12 -20 0 -11 6 -22
13 -24 7 -4 3 -8 -10 -12 -13 -4 -23 -12 -23 -17 0 -6 7 -7 18 -2 9 4 32 8 50
8 17 1 32 4 32 9 0 4 -5 7 -11 7 -6 0 -8 7 -5 15 3 8 9 21 12 29 6 16 -39 25
-76 15z m60 -17 c0 -15 -22 -31 -36 -25 -18 7 -5 33 17 33 10 0 19 -4 19 -8z"/>
<path d="M419 5469 c-14 -5 -31 -21 -38 -35 -8 -18 -11 -272 -11 -930 l0 -905
25 -24 24 -25 7124 0 7124 0 27 21 26 20 0 915 c0 578 -4 922 -10 934 -5 10
-24 23 -41 29 -42 14 -14211 14 -14250 0z m14255 -51 c14 -20 16 -123 16 -908
0 -750 -2 -889 -14 -906 -14 -19 -98 -19 -7130 -19 -5824 0 -7117 2 -7128 13
-10 10 -14 189 -16 904 -2 788 -1 894 13 915 l15 23 7115 0 7114 0 15 -22z"/>
<path d="M2187 5038 c-9 -7 -21 -26 -27 -41 -14 -40 -14 -1203 1 -1246 6 -17
19 -36 29 -41 12 -7 1420 -10 3994 -10 l3975 0 20 26 c21 26 21 35 21 649 0
614 0 623 -21 649 l-20 26 -3978 0 c-3166 0 -3981 -3 -3994 -12z m7959 -32
c18 -14 19 -32 19 -631 0 -599 -1 -617 -19 -631 -17 -12 -574 -14 -3969 -14
-2702 0 -3954 3 -3968 10 -18 10 -19 28 -19 635 0 584 1 625 18 634 11 7 1303
10 3968 11 3396 0 3953 -2 3970 -14z"/>
<path d="M5841 4973 c-1 -22 -6 -33 -16 -33 -11 0 -15 -11 -13 -47 l1 -48 4
43 c4 39 6 42 34 42 27 0 29 -2 29 -40 0 -22 5 -40 11 -40 6 0 9 17 7 43 -3
35 -7 43 -26 45 -29 4 -24 24 9 33 l24 7 -27 1 c-14 1 -29 7 -31 14 -3 6 -6
-3 -6 -20z"/>
<path d="M6175 4970 c-18 -34 -20 -109 -3 -145 17 -38 29 -30 12 10 -18 43
-18 72 1 124 17 48 12 54 -10 11z"/>
<path d="M6570 4998 c-1 -5 -3 -13 -4 -20 0 -7 -12 -15 -26 -19 -23 -6 -23 -7
-3 -8 44 -2 39 -50 -6 -52 -24 -2 -24 -2 -3 -6 18 -4 22 -9 16 -26 -3 -12 -10
-26 -15 -31 -22 -24 -8 -32 41 -26 29 4 54 2 60 -4 15 -15 12 0 -5 34 -18 36
-26 38 -22 8 2 -19 -4 -24 -30 -26 -38 -4 -39 -2 -18 38 13 25 22 30 53 32 37
1 37 1 5 5 -27 4 -33 9 -33 28 0 19 6 24 33 28 l32 4 -32 1 c-24 2 -33 7 -36
25 -2 12 -5 19 -7 15z"/>
<path d="M6825 4985 c21 -62 24 -83 19 -115 -4 -19 -11 -43 -16 -52 -5 -10 -6
-18 -3 -18 12 0 35 70 35 102 -1 18 -10 49 -21 68 -11 19 -17 26 -14 15z"/>
<path d="M5520 4971 c0 -12 -6 -21 -12 -21 -10 0 -10 -2 0 -9 12 -7 11 -14 -3
-42 -13 -28 -13 -31 0 -15 14 19 15 16 15 -32 0 -29 4 -52 9 -52 5 0 8 20 7
45 -2 25 0 48 5 51 5 3 9 0 9 -7 0 -7 3 -10 6 -7 3 3 -1 16 -8 27 -11 18 -11
23 2 31 10 6 11 10 3 10 -7 0 -13 6 -13 14 0 8 -4 18 -10 21 -5 3 -10 -3 -10
-14z"/>
<path d="M5601 4978 c3 -28 -2 -38 -18 -39 -14 0 -13 -2 5 -9 25 -10 30 -30 8
-30 -8 0 -18 -5 -22 -12 -5 -8 -2 -9 9 -5 23 9 43 -29 26 -49 -6 -8 -18 -14
-25 -14 -8 0 -14 -4 -14 -10 0 -6 10 -5 26 2 20 9 30 9 46 -1 15 -9 23 -9 34
0 16 13 19 29 4 29 -5 0 -10 -7 -10 -15 0 -20 -19 -19 -27 0 -3 9 3 25 12 35
10 11 13 20 7 20 -6 0 -12 -5 -14 -12 -4 -12 -28 -3 -28 11 0 5 15 13 33 19
l32 10 -33 1 c-39 1 -39 22 -1 32 24 7 24 7 -3 8 -21 1 -28 6 -28 21 0 11 -5
20 -10 20 -6 0 -10 -6 -9 -12z"/>
<path d="M5751 4978 c0 -10 -8 -18 -16 -18 -12 0 -15 -13 -13 -67 l2 -68 3 63
c5 88 23 77 24 -15 0 -57 3 -72 9 -55 5 12 14 22 20 22 6 0 10 25 10 60 0 45
-3 60 -14 60 -8 0 -17 8 -19 18 -4 16 -5 16 -6 0z m29 -84 c0 -24 -4 -44 -10
-44 -5 0 -10 23 -10 51 0 31 4 48 10 44 6 -3 10 -26 10 -51z"/>
<path d="M6320 4977 c0 -13 -10 -17 -47 -19 -39 -1 -42 -2 -14 -5 33 -4 33 -5
28 -49 -3 -27 -13 -55 -26 -68 -24 -26 -28 -45 -5 -25 8 7 24 30 35 51 18 35
24 39 52 36 29 -3 32 -6 35 -41 3 -31 -1 -39 -20 -46 -22 -9 -22 -10 -2 -10
26 -1 34 16 34 70 0 39 0 39 -40 39 -33 0 -40 3 -40 20 0 17 7 20 58 22 45 1
49 2 17 5 -22 2 -46 11 -52 20 -12 16 -13 16 -13 0z"/>
<path d="M6460 4981 c0 -5 7 -12 16 -15 14 -5 15 -4 4 9 -14 17 -20 19 -20 6z"/>
<path d="M6084 4954 c-16 -13 -16 -15 -1 -10 15 5 17 -2 17 -60 0 -43 4 -63
10 -59 12 7 11 117 0 135 -4 6 -13 4 -26 -6z"/>
<path d="M6716 4961 c-17 -27 -55 -141 -47 -141 5 0 13 9 16 20 5 15 15 20 45
20 30 0 40 -5 45 -20 3 -11 10 -20 15 -20 11 0 -44 143 -58 148 -5 1 -13 -1
-16 -7z m29 -43 c7 -18 11 -36 9 -40 -7 -11 -42 -10 -48 1 -5 7 14 71 22 71 1
0 9 -15 17 -32z"/>
<path d="M5840 4878 c0 -19 -9 -41 -22 -55 -12 -13 -16 -23 -10 -23 16 0 40
40 48 78 4 21 3 32 -5 32 -6 0 -11 -14 -11 -32z"/>
<path d="M5958 4873 c18 -2 45 -2 60 0 15 2 0 4 -33 4 -33 0 -45 -2 -27 -4z"/>
<path d="M6471 4847 c-16 -41 -13 -57 5 -24 8 16 13 34 11 40 -3 7 -10 -1 -16
-16z"/>
<path d="M5861 4827 c2 -1 13 -9 24 -17 19 -14 19 -14 6 3 -7 9 -18 17 -24 17
-6 0 -8 -1 -6 -3z"/>
<path d="M2322 4618 c-38 -19 -43 -65 -40 -361 l3 -279 24 -19 c22 -18 51 -19
867 -19 l843 0 21 22 c19 21 20 34 20 319 0 277 -1 298 -19 320 l-19 24 -839
2 c-591 1 -845 -1 -861 -9z m1684 -32 c18 -14 19 -31 22 -291 3 -238 1 -280
-13 -301 l-15 -24 -823 0 c-695 0 -826 2 -843 14 -18 14 -19 30 -22 282 -3
276 2 318 36 327 10 3 382 5 828 6 685 1 813 -1 830 -13z"/>
<path d="M3160 4378 c0 -14 -10 -18 -47 -19 -45 -2 -46 -2 -13 -8 27 -5 35
-11 35 -28 0 -11 3 -25 8 -29 4 -4 7 7 7 24 0 25 4 32 20 32 16 0 20 -7 20
-30 0 -16 5 -30 10 -30 6 0 10 13 10 29 0 26 4 30 33 34 27 3 25 4 -12 5 -29
1 -48 8 -57 20 -13 16 -13 16 -14 0z"/>
<path d="M2624 4374 c-6 -3 -10 -19 -8 -38 4 -31 -6 -100 -21 -141 -7 -20 -6
-20 9 -1 9 11 19 34 22 53 l6 33 69 0 69 0 0 -45 c0 -38 -4 -47 -22 -55 l-23
-9 22 0 c29 -1 45 30 41 82 l-3 42 -77 3 c-43 2 -78 7 -78 12 0 5 32 10 72 12
62 3 72 6 74 23 2 11 -2 23 -9 27 -13 8 -124 10 -143 2z m134 -26 c-3 -9 -25
-13 -63 -13 -38 0 -60 4 -62 13 -4 9 13 12 62 12 49 0 66 -3 63 -12z"/>
<path d="M2875 4371 c3 -5 -7 -12 -22 -14 -16 -2 -1 -4 32 -4 33 0 48 2 33 4
-16 2 -28 9 -28 14 0 5 -5 9 -11 9 -5 0 -8 -4 -4 -9z"/>
<path d="M3330 4355 c0 -14 5 -25 10 -25 9 0 14 14 11 33 0 4 26 7 59 7 33 0
59 -3 59 -7 -3 -19 2 -33 11 -33 6 0 10 11 10 25 0 25 -1 25 -80 25 -79 0 -80
0 -80 -25z"/>
<path d="M3640 4371 c0 -6 -19 -12 -42 -14 l-43 -4 43 -1 c47 -2 59 -22 13
-22 -17 0 -33 -4 -36 -10 -4 -6 8 -10 29 -10 54 0 43 -20 -11 -21 -34 -2 -39
-3 -18 -6 46 -7 49 -18 10 -39 -19 -10 -35 -22 -35 -27 0 -4 9 -3 20 3 18 10
20 8 20 -19 0 -28 1 -29 31 -21 40 12 53 25 16 16 -27 -6 -28 -5 -25 25 3 36
37 65 46 39 8 -24 82 -94 90 -85 4 4 2 10 -4 12 -6 2 -20 10 -30 18 -18 14
-18 16 -1 26 9 5 17 15 17 21 0 7 -5 6 -15 -2 -18 -15 -45 -6 -45 14 0 10 13
16 43 19 l42 4 -47 1 c-55 2 -66 22 -12 22 21 0 33 4 29 10 -3 6 -19 10 -36
10 -46 0 -34 20 14 22 40 1 40 1 7 5 -19 3 -39 9 -44 14 -13 12 -26 12 -26 0z"/>
<path d="M2962 4268 l2 -103 3 98 c3 90 5 97 24 97 18 0 20 -4 14 -30 -4 -16
-1 -45 7 -66 12 -33 11 -37 -7 -51 -20 -15 -20 -15 0 -11 24 4 32 42 15 72 -8
16 -8 30 -1 50 16 41 14 46 -24 46 l-35 0 2 -102z"/>
<path d="M2850 4318 c0 -10 -4 -18 -10 -18 -5 0 -10 -4 -10 -10 0 -5 25 -10
55 -10 30 0 55 5 55 10 0 6 -5 10 -11 10 -6 0 -9 7 -5 15 3 8 1 15 -3 15 -5 0
-11 -7 -15 -15 -7 -20 -26 -19 -42 3 -13 16 -13 16 -14 0z"/>
<path d="M3086 4314 c-11 -7 -17 -16 -15 -19 3 -3 14 2 25 9 10 8 17 17 14 19
-3 3 -14 -1 -24 -9z"/>
<path d="M3245 4310 c10 -11 20 -18 23 -15 7 6 -18 35 -31 35 -5 0 -2 -9 8
-20z"/>
<path d="M3358 4303 c28 -2 76 -2 105 0 28 2 5 3 -53 3 -58 0 -81 -1 -52 -3z"/>
<path d="M3330 4255 c0 -22 4 -25 35 -25 47 0 45 -18 -2 -23 l-38 -4 38 -1
c28 -2 37 -6 37 -19 1 -17 2 -17 13 -1 7 9 29 18 48 21 l34 4 -37 1 c-37 2
-55 21 -20 23 14 0 14 2 -3 9 l-20 9 20 1 c15 1 16 3 5 7 -8 3 -19 11 -23 17
-6 8 -10 7 -14 -1 -2 -7 -18 -13 -34 -13 -18 0 -28 4 -24 10 3 6 1 10 -4 10
-6 0 -11 -11 -11 -25z m58 -12 c-10 -2 -26 -2 -35 0 -10 3 -2 5 17 5 19 0 27
-2 18 -5z"/>
<path d="M3475 4270 c3 -5 0 -10 -7 -10 -10 0 -10 -2 1 -9 11 -7 11 -9 0 -14
-10 -4 -9 -6 4 -6 12 -1 17 7 17 24 0 14 -5 25 -11 25 -5 0 -7 -4 -4 -10z"/>
<path d="M3119 4243 c17 -15 31 -31 31 -35 0 -4 -16 -10 -35 -14 -19 -3 -35
-10 -35 -15 0 -4 22 -1 50 7 32 9 56 12 67 6 31 -16 73 -23 73 -12 0 5 -10 10
-22 10 -13 0 -30 5 -38 10 -12 8 -11 13 8 33 12 13 22 26 22 30 0 4 -34 7 -76
7 l-76 0 31 -27z m84 -5 c-19 -19 -26 -20 -48 -10 -39 18 -30 32 22 32 l47 0
-21 -22z"/>
<path d="M2654 4246 c-12 -31 4 -47 43 -44 33 3 38 6 38 28 0 22 -5 25 -38 28
-26 2 -39 -1 -43 -12z m66 -16 c0 -15 -7 -20 -25 -20 -18 0 -25 5 -25 20 0 15
7 20 25 20 18 0 25 -5 25 -20z"/>
<path d="M2840 4218 l0 -43 45 0 45 0 0 43 0 42 -45 0 -45 0 0 -42z m80 1 c0
-15 -7 -19 -35 -19 -28 0 -35 4 -35 19 0 13 8 21 23 23 32 6 47 -2 47 -23z"/>
<path d="M4378 4615 c-18 -10 -29 -26 -33 -48 -3 -17 -5 -157 -3 -310 l3 -279
24 -19 c22 -18 47 -19 607 -19 563 0 585 1 603 19 11 11 22 39 26 63 9 58 1
549 -9 570 -17 36 -58 38 -630 38 -474 -1 -565 -3 -588 -15z m1170 -31 c22
-15 22 -17 22 -296 0 -248 -2 -284 -17 -300 -15 -17 -46 -18 -578 -18 -469 0
-564 2 -581 14 -18 14 -19 29 -19 301 0 272 1 287 19 301 17 12 111 14 576 14
487 0 558 -2 578 -16z"/>
<path d="M4654 4365 c3 -9 -1 -18 -10 -22 -15 -5 -15 -7 0 -15 20 -11 21 -42
1 -58 -13 -11 -13 -14 2 -26 16 -11 16 -17 6 -44 -9 -24 -9 -30 0 -27 7 2 13
21 15 43 2 21 8 44 14 51 7 9 7 13 -1 13 -15 0 -14 33 1 48 9 9 9 12 0 12 -7
0 -12 9 -12 20 0 11 -5 20 -11 20 -6 0 -8 -7 -5 -15z"/>
<path d="M4724 4365 c-10 -24 5 -35 47 -35 35 0 39 3 39 25 0 23 -4 25 -40 25
-26 0 -43 -5 -46 -15z m74 -13 c2 -7 -8 -12 -27 -12 -31 0 -50 15 -29 23 20 8
52 1 56 -11z"/>
<path d="M4910 4366 c0 -7 -10 -26 -22 -41 -15 -20 -18 -30 -10 -33 8 -2 12
-25 12 -63 0 -33 4 -59 10 -59 6 0 10 33 10 79 0 44 4 91 10 105 6 17 6 26 0
26 -6 0 -10 -6 -10 -14z"/>
<path d="M4948 4338 c-30 -54 -25 -74 6 -25 l21 32 3 -87 c3 -84 17 -120 24
-60 3 23 7 27 30 24 14 -2 29 2 33 7 4 7 -7 11 -29 11 -29 0 -36 4 -36 20 0
16 7 20 30 20 17 0 30 5 30 11 0 6 -7 9 -15 5 -23 -8 -45 4 -45 24 0 15 9 20
43 23 41 3 40 4 -10 5 -40 2 -52 6 -55 20 -2 12 -11 3 -30 -30z"/>
<path d="M5140 4360 c0 -12 -7 -20 -17 -20 -15 0 -16 -2 -3 -10 15 -9 16 -11
18 -104 3 -81 17 -61 19 27 1 41 6 73 12 75 7 2 5 9 -4 19 -8 8 -13 19 -10 24
4 5 1 9 -4 9 -6 0 -11 -9 -11 -20z"/>
<path d="M5231 4358 c-1 -18 -7 -28 -16 -28 -8 0 -15 -4 -15 -10 0 -5 7 -10
15 -10 8 0 15 -7 15 -15 0 -8 -7 -15 -15 -15 -8 0 -15 -4 -15 -9 0 -5 8 -8 18
-7 12 1 18 -7 20 -26 3 -21 -3 -30 -25 -42 -15 -8 -22 -15 -15 -16 7 0 22 5
33 11 16 8 25 7 41 -8 19 -17 20 -17 34 2 8 10 14 24 14 29 0 6 -7 2 -15 -8
-11 -15 -18 -17 -27 -8 -8 8 -7 17 6 36 9 15 12 26 7 26 -6 0 -14 -8 -20 -17
-9 -17 -10 -17 -16 -1 -10 24 2 38 33 39 24 2 24 2 -6 8 -35 6 -44 24 -15 29
33 7 40 24 8 20 -24 -2 -30 1 -36 22 l-7 25 -1 -27z"/>
<path d="M5270 4371 c0 -5 5 -13 10 -16 6 -3 10 -2 10 4 0 5 -4 13 -10 16 -5
3 -10 2 -10 -4z"/>
<path d="M4700 4290 c0 -16 7 -20 30 -20 23 0 30 4 30 20 0 12 -7 20 -17 20
-14 0 -15 -2 -4 -9 9 -6 10 -11 2 -15 -14 -9 -33 2 -26 15 4 5 1 9 -4 9 -6 0
-11 -9 -11 -20z"/>
<path d="M4772 4293 c2 -11 14 -19 31 -21 22 -3 27 1 27 17 0 17 -6 21 -31 21
-24 0 -30 -4 -27 -17z m48 -3 c0 -5 -7 -10 -15 -10 -8 0 -15 5 -15 10 0 6 7
10 15 10 8 0 15 -4 15 -10z"/>
<path d="M5110 4261 c-6 -12 -7 -21 -1 -21 10 0 24 30 17 37 -2 3 -9 -5 -16
-16z"/>
<path d="M4733 4252 c-32 -3 -47 -22 -18 -22 8 0 15 -4 15 -9 0 -5 -7 -11 -15
-15 -8 -3 -15 -11 -15 -18 0 -6 13 1 29 16 l30 28 4 -33 4 -34 1 33 c2 39 8
40 34 7 11 -14 24 -25 30 -25 7 0 1 11 -12 25 -19 21 -21 25 -7 25 9 0 17 4
17 9 0 10 -52 17 -97 13z"/>
<path d="M6093 4618 c-41 -20 -44 -49 -41 -351 3 -272 4 -288 23 -307 20 -20
32 -20 865 -20 l845 -1 23 26 c22 26 22 30 22 319 l0 293 -25 27 -24 26 -833
-1 c-562 0 -840 -4 -855 -11z m1680 -32 c15 -12 17 -39 17 -303 0 -211 -3
-292 -12 -301 -9 -9 -208 -12 -835 -12 -810 0 -823 0 -843 20 -19 19 -20 33
-20 284 0 146 4 276 9 290 6 13 18 26 28 29 10 3 383 5 828 6 659 0 813 -2
828 -13z"/>
<path d="M6621 4364 c0 -13 -10 -24 -23 -28 l-23 -7 21 -9 c20 -8 21 -13 13
-56 -12 -62 -23 -72 -39 -35 -14 34 -31 43 -23 12 3 -13 -2 -20 -18 -24 -30
-8 -30 -7 -18 35 7 29 15 38 37 41 15 2 5 4 -23 4 -27 1 -43 -1 -33 -4 16 -4
15 -22 -8 -77 -7 -17 -4 -18 39 -12 37 6 47 4 55 -10 8 -15 11 -14 26 7 9 13
19 45 22 71 5 38 10 48 25 48 16 0 19 -8 19 -59 0 -51 -3 -62 -22 -75 -16 -11
-18 -16 -7 -16 30 0 39 23 39 97 0 71 -1 73 -24 73 -18 0 -26 7 -29 23 -4 21
-4 21 -6 1z"/>
<path d="M6810 4370 c0 -5 -19 -11 -42 -11 -26 -1 -33 -3 -18 -6 54 -9 57 -13
25 -39 -16 -13 -36 -24 -42 -24 -7 0 -13 -5 -13 -10 0 -6 14 -4 34 4 30 13 36
13 47 0 6 -8 14 -12 17 -9 3 2 0 11 -7 18 -12 15 -5 47 10 47 5 0 12 -7 16
-15 7 -19 83 -60 83 -45 0 5 -6 10 -12 10 -7 0 -26 11 -43 24 -32 26 -29 30
25 39 15 3 8 5 -17 6 -24 0 -43 6 -43 11 0 6 -4 10 -10 10 -5 0 -10 -4 -10
-10z"/>
<path d="M6964 4346 c-8 -27 -7 -35 5 -44 13 -8 14 -13 3 -31 -7 -12 -8 -21
-2 -21 5 0 10 -16 10 -35 0 -37 5 -41 30 -25 10 6 11 10 3 10 -7 0 -13 11 -13
24 0 13 6 27 13 29 9 4 9 8 -2 15 -8 6 -11 17 -8 26 5 11 1 16 -13 16 -29 0
-24 19 8 32 21 9 23 12 10 15 -10 3 -18 9 -18 14 0 22 -16 6 -26 -25z"/>
<path d="M7030 4372 c0 -5 7 -15 15 -22 8 -7 15 -8 15 -2 0 5 -7 15 -15 22 -8
7 -15 8 -15 2z"/>
<path d="M7097 4365 c-12 -8 -14 -15 -8 -20 8 -4 8 -12 1 -25 -15 -28 -12 -40
10 -40 32 0 24 -30 -7 -31 -27 -1 -27 -1 -4 -8 13 -3 28 -15 32 -26 7 -19 8
-19 8 2 1 14 9 23 24 26 l22 4 -22 2 c-25 1 -32 31 -8 31 12 0 12 3 -2 18 -10
10 -19 14 -21 10 -2 -4 -11 -8 -19 -8 -14 0 -14 2 -1 22 9 13 26 26 39 29 23
7 23 7 2 8 -12 1 -23 5 -25 10 -1 5 -11 4 -21 -4z"/>
<path d="M7220 4360 c0 -11 -4 -20 -10 -20 -5 0 -10 -5 -10 -11 0 -5 5 -7 10
-4 18 11 11 -47 -7 -61 -17 -13 -17 -13 0 -14 20 0 24 -49 5 -68 -9 -9 -8 -12
4 -12 19 0 28 20 28 66 0 20 5 34 13 34 9 0 9 2 -1 9 -7 4 -12 19 -11 32 4 42
-1 69 -11 69 -5 0 -10 -9 -10 -20z"/>
<path d="M7320 4371 c0 -5 -10 -12 -22 -14 -13 -2 -3 -5 21 -6 35 -1 42 -4 37
-17 -3 -9 -6 -18 -6 -20 0 -12 -30 -2 -39 14 -9 15 -10 15 -11 0 0 -9 -8 -18
-17 -20 -33 -7 41 -13 82 -7 22 3 30 7 18 8 -16 1 -20 6 -16 20 3 11 12 22 22
24 9 3 4 5 -11 6 -15 0 -30 6 -33 11 -8 13 -25 13 -25 1z"/>
<path d="M6494 4362 c5 -8 66 -4 66 4 0 2 -16 4 -36 4 -19 0 -33 -4 -30 -8z"/>
<path d="M7038 4293 c14 -6 16 -79 2 -88 -5 -3 -10 -11 -10 -18 0 -8 3 -8 11
0 8 8 18 7 37 -3 31 -16 82 -19 82 -4 0 6 -15 10 -34 10 -58 0 -66 7 -66 61 0
40 -3 49 -17 48 -11 0 -13 -3 -5 -6z"/>
<path d="M7303 4267 c-2 -4 -8 -5 -13 -2 -5 3 -11 1 -15 -5 -3 -5 -1 -10 4
-10 6 0 11 -7 11 -15 0 -7 8 -18 18 -24 15 -8 14 -11 -12 -21 -41 -15 -28 -22
17 -8 28 9 44 8 64 -1 l28 -12 -24 19 c-20 16 -22 22 -12 40 7 12 16 22 21 22
6 0 10 4 10 9 0 11 -90 19 -97 8z m57 -25 c0 -4 -5 -13 -12 -20 -13 -13 -52 3
-43 19 7 11 55 12 55 1z"/>
<path d="M6820 4236 c0 -8 5 -18 10 -21 6 -3 10 1 10 9 0 8 -4 18 -10 21 -5 3
-10 -1 -10 -9z"/>
<path d="M6890 4239 c0 -8 7 -24 15 -35 18 -24 19 -7 0 26 -9 16 -14 19 -15 9z"/>
<path d="M6730 4231 c0 -5 -3 -17 -7 -27 -4 -11 -3 -15 4 -11 14 9 24 47 12
47 -5 0 -9 -4 -9 -9z"/>
<path d="M6770 4217 c0 -31 18 -47 55 -47 34 0 55 15 55 40 -1 12 -2 12 -11
-2 -6 -12 -22 -18 -44 -18 -31 0 -35 3 -35 25 0 14 -4 25 -10 25 -5 0 -10 -10
-10 -23z"/>
<path d="M8093 4618 c-38 -18 -43 -58 -43 -333 0 -270 6 -317 40 -335 12 -6
365 -10 959 -10 916 0 942 1 960 19 29 29 33 80 29 365 l-3 258 -28 24 -28 24
-932 -1 c-636 0 -939 -4 -954 -11z m1885 -34 c22 -15 22 -17 22 -296 0 -248
-2 -284 -17 -300 -15 -17 -58 -18 -939 -18 -825 0 -924 2 -938 16 -14 13 -16
55 -16 299 0 282 0 284 22 299 20 14 125 16 933 16 808 0 913 -2 933 -16z"/>
<path d="M8711 4373 c-1 -19 -7 -23 -31 -23 -16 0 -30 -4 -30 -10 0 -5 14 -10
30 -10 23 0 30 -4 30 -20 0 -16 -7 -20 -35 -20 -19 0 -35 -4 -35 -10 0 -5 11
-10 25 -10 30 0 31 -5 5 -48 -11 -18 -20 -35 -20 -37 0 -3 31 -4 69 -3 l69 3
-15 30 c-21 41 -27 45 -19 14 5 -25 3 -27 -32 -31 -20 -3 -39 -3 -41 -1 -3 2
3 19 12 38 14 30 22 35 52 35 19 0 35 5 35 11 0 6 -12 9 -27 7 -23 -2 -29 1
-31 20 -3 19 1 22 27 22 17 0 31 5 31 10 0 6 -13 10 -29 10 -23 0 -31 5 -34
23 l-4 22 -2 -22z"/>
<path d="M8436 4365 c5 -12 -4 -15 -42 -16 -31 -1 -39 -4 -21 -6 16 -3 31 -11
34 -19 9 -25 -7 -83 -33 -114 -14 -16 -22 -30 -17 -30 16 0 51 44 58 73 6 24
12 27 45 27 22 0 42 -5 45 -11 13 -21 -5 -80 -28 -89 -16 -6 -18 -9 -5 -9 29
-1 48 28 48 75 l0 44 -44 0 c-48 0 -60 8 -50 34 5 12 22 16 68 18 57 1 58 2
13 5 -30 3 -50 10 -54 19 -3 8 -9 14 -14 14 -4 0 -6 -7 -3 -15z"/>
<path d="M8590 4372 c0 -4 9 -13 20 -20 11 -7 20 -9 20 -4 0 4 -9 13 -20 20
-11 7 -20 9 -20 4z"/>
<path d="M8830 4374 c0 -7 27 -34 34 -34 13 0 5 16 -14 28 -11 7 -20 10 -20 6z"/>
<path d="M8949 4373 l-35 -4 -11 -77 c-11 -75 -10 -112 2 -56 14 70 19 78 50
80 40 2 47 -3 35 -27 -9 -15 -15 -17 -30 -9 -29 16 -34 12 -10 -8 l23 -18 -28
-22 c-15 -12 -22 -22 -15 -22 8 0 22 7 32 17 17 15 19 15 38 -2 23 -21 27 -9
5 15 -14 15 -14 20 -1 45 20 38 13 45 -40 45 -32 0 -44 4 -44 15 0 10 11 15
33 16 17 0 41 4 52 9 l20 9 -20 -1 c-11 -1 -36 -3 -56 -5z"/>
<path d="M9320 4351 c0 -16 -6 -32 -12 -34 -10 -4 -10 -6 0 -6 15 -1 17 -91 2
-91 -5 0 -10 -4 -10 -9 0 -6 13 -5 32 1 18 6 27 13 20 16 -16 5 -16 79 1 85
10 4 10 6 0 6 -8 1 -13 14 -13 31 0 17 -4 30 -10 30 -5 0 -10 -13 -10 -29z"/>
<path d="M9439 4350 c-5 -45 -38 -56 -40 -13 -2 27 -2 27 -6 3 -3 -14 -9 -29
-13 -34 -5 -5 -5 -16 -1 -25 5 -9 9 -34 9 -55 2 -45 13 -56 63 -56 37 0 59 14
59 40 -1 12 -2 12 -11 -2 -7 -13 -23 -18 -55 -18 l-45 0 3 52 c2 40 7 54 20
56 13 3 18 -6 21 -40 l4 -43 1 46 c2 43 19 68 36 52 10 -11 6 -48 -6 -62 -11
-11 -10 -13 2 -9 10 3 16 20 18 50 3 44 2 45 -22 41 -21 -4 -25 -1 -28 23 -4
28 -4 28 -9 -6z"/>
<path d="M9560 4351 c0 -16 -6 -32 -12 -34 -10 -4 -10 -6 0 -6 20 -1 15 -81
-5 -97 -15 -11 -15 -13 -3 -13 23 0 78 27 58 28 -14 1 -18 10 -18 40 0 22 5
42 13 44 10 4 10 6 0 6 -8 1 -13 14 -13 31 0 17 -4 30 -10 30 -5 0 -10 -13
-10 -29z"/>
<path d="M9680 4284 c0 -86 -2 -95 -17 -92 -14 3 -19 17 -24 73 l-5 70 -2 -72
c-2 -59 -5 -72 -19 -76 -10 -3 18 -5 62 -4 44 0 67 2 52 4 -27 4 -28 6 -25 56
2 42 6 52 21 51 9 -1 17 2 17 7 0 5 -9 9 -20 9 -16 0 -20 7 -20 35 0 19 -4 35
-10 35 -6 0 -10 -39 -10 -96z"/>
<path d="M9070 4275 l0 -95 95 0 95 0 0 95 0 95 -95 0 -95 0 0 -95z m170 5 l0
-80 -60 -1 c-33 -1 -68 -2 -77 -3 -15 -1 -18 10 -21 68 -2 38 -1 75 2 83 4 9
27 13 81 13 l75 0 0 -80z"/>
<path d="M9120 4280 l0 -40 45 0 45 0 0 40 0 40 -45 0 -45 0 0 -40z m74 22 c3
-5 2 -18 -1 -30 -4 -16 -13 -22 -34 -22 -24 0 -29 4 -29 23 0 13 3 27 7 30 9
10 51 9 57 -1z"/>
<path d="M8590 4312 c0 -12 19 -26 26 -19 2 2 -2 10 -11 17 -9 8 -15 8 -15 2z"/>
<path d="M8836 4292 c18 -11 22 -60 8 -79 -7 -10 -14 -24 -14 -32 0 -11 4 -9
14 4 11 16 17 17 29 7 21 -17 142 -28 151 -13 5 8 -13 11 -61 11 -40 0 -74 5
-81 12 -7 7 -12 31 -12 55 0 38 -3 43 -22 43 -13 0 -18 -3 -12 -8z"/>
<path d="M8605 4224 c-8 -21 -14 -42 -12 -48 2 -5 11 10 21 33 9 24 15 46 12
48 -3 3 -12 -12 -21 -33z"/>
<path d="M10540 5028 c-20 -21 -20 -32 -20 -649 0 -618 0 -627 21 -653 l20
-26 850 0 c554 0 857 4 869 10 11 6 24 27 30 48 14 51 14 1183 0 1234 -6 21
-19 42 -30 48 -12 6 -315 10 -869 10 l-850 0 -21 -22z m1722 -25 c17 -15 18
-48 18 -626 0 -554 -2 -612 -17 -629 -15 -17 -55 -18 -846 -18 -759 0 -832 1
-849 17 -17 15 -18 48 -18 626 0 554 2 612 17 629 15 17 55 18 846 18 759 0
832 -1 849 -17z"/>
<path d="M11545 4970 c-19 -37 -19 -118 1 -150 l15 -25 -6 25 c-16 67 -16 92
-2 134 18 53 15 60 -8 16z"/>
<path d="M10850 4973 c0 -15 -6 -23 -17 -24 -17 0 -17 -1 -1 -7 16 -7 16 -10
3 -36 -19 -36 -19 -45 0 -20 13 17 14 15 16 -36 l2 -55 7 65 c4 36 6 68 4 72
-2 3 0 8 4 10 4 1 2 14 -5 28 -12 25 -13 25 -13 3z"/>
<path d="M10931 4968 c0 -16 -8 -28 -18 -31 -17 -4 -17 -5 0 -6 9 0 17 -6 17
-12 0 -7 -8 -18 -17 -26 -17 -13 -17 -13 1 -11 11 2 22 -5 27 -20 7 -19 4 -25
-16 -34 -14 -6 -25 -15 -25 -19 0 -5 11 -4 24 2 17 8 29 8 45 0 25 -14 41 -7
41 17 0 13 -2 13 -14 -4 -14 -18 -15 -18 -22 -1 -3 10 -2 23 5 30 6 6 11 16
11 21 0 6 -5 5 -12 -2 -16 -16 -28 -15 -28 2 0 8 12 19 28 25 l27 11 -27 -4
c-22 -2 -28 1 -28 15 0 10 9 19 23 22 19 4 19 4 -5 6 -19 1 -28 7 -31 24 -4
19 -4 19 -6 -5z"/>
<path d="M10965 4980 c3 -5 11 -10 16 -10 6 0 7 5 4 10 -3 6 -11 10 -16 10 -6
0 -7 -4 -4 -10z"/>
<path d="M11070 4976 c0 -8 -7 -16 -15 -20 -11 -4 -15 -20 -13 -63 l2 -58 3
50 c7 84 23 77 23 -9 l0 -78 25 30 c18 22 25 42 25 72 0 33 -6 48 -25 66 -16
15 -25 18 -25 10z m30 -76 c0 -27 -3 -50 -7 -50 -5 0 -7 19 -6 42 2 58 2 58 8
58 3 0 5 -22 5 -50z"/>
<path d="M11170 4967 c0 -10 -9 -21 -20 -24 -16 -4 -20 -14 -20 -49 0 -24 4
-44 8 -44 4 0 8 17 8 38 -1 34 1 37 31 40 31 3 32 2 36 -40 l4 -43 1 48 c2 42
0 47 -19 47 -28 0 -19 23 12 30 22 6 22 7 -8 11 -28 5 -33 2 -33 -14z"/>
<path d="M11686 4975 c5 -12 -4 -15 -42 -17 -39 -1 -42 -2 -15 -5 33 -4 33 -5
28 -49 -3 -27 -13 -55 -26 -68 -24 -26 -28 -45 -5 -25 8 7 24 30 35 51 18 35
24 39 52 36 30 -3 32 -5 32 -43 0 -33 -4 -40 -25 -46 l-25 -7 27 -1 c29 -1 35
9 40 69 l3 35 -48 3 c-39 3 -48 6 -45 20 2 13 18 18 63 23 52 5 54 6 17 7 -27
1 -45 7 -48 17 -4 8 -10 15 -15 15 -4 0 -6 -7 -3 -15z"/>
<path d="M11830 4981 c0 -5 7 -12 16 -15 14 -5 15 -4 4 9 -14 17 -20 19 -20 6z"/>
<path d="M11938 4978 c-4 -10 -18 -18 -30 -19 -22 -1 -22 -1 2 -8 37 -10 33
-44 -5 -52 -24 -5 -26 -7 -7 -8 19 -1 22 -5 17 -23 -4 -13 -11 -27 -16 -32
-22 -24 -8 -32 41 -26 29 4 54 2 60 -4 15 -15 12 0 -5 34 -18 36 -26 38 -22 8
2 -19 -4 -24 -30 -26 -38 -4 -39 -2 -18 38 13 25 22 30 53 31 36 1 36 2 7 8
-38 8 -42 42 -5 52 l25 7 -27 1 c-17 1 -28 7 -30 19 -3 16 -4 16 -10 0z"/>
<path d="M11412 4958 c-6 -6 -12 -19 -12 -27 0 -11 5 -8 16 7 20 29 58 26 62
-4 2 -15 -9 -31 -37 -54 -56 -44 -54 -60 7 -58 43 1 44 2 10 5 -21 2 -38 8
-38 12 0 5 16 21 36 36 29 22 35 32 32 58 -3 27 -7 32 -33 35 -17 2 -36 -3
-43 -10z"/>
<path d="M11170 4880 c0 -19 -9 -40 -25 -55 -13 -14 -20 -25 -15 -25 23 0 50
41 50 75 0 19 -2 35 -5 35 -3 0 -5 -14 -5 -30z"/>
<path d="M11288 4873 c18 -2 45 -2 60 0 15 2 0 4 -33 4 -33 0 -45 -2 -27 -4z"/>
<path d="M11840 4840 c-7 -17 -10 -33 -8 -36 3 -2 11 9 18 26 7 17 10 33 8 36
-3 2 -11 -9 -18 -26z"/>
<path d="M11190 4825 c0 -2 10 -10 23 -16 20 -11 21 -11 8 4 -13 16 -31 23
-31 12z"/>
<path d="M11488 4665 c14 -50 14 -58 -1 -97 -21 -51 -13 -65 8 -15 19 46 19
88 1 132 -22 52 -25 42 -8 -20z"/>
<path d="M11327 4693 c-4 -3 -7 -39 -7 -80 l0 -73 41 0 c22 0 49 5 60 10 20
11 26 54 9 65 -7 4 -7 12 0 25 13 24 13 26 -6 44 -15 16 -84 22 -97 9z m91
-35 c-2 -19 -10 -24 -40 -26 -35 -3 -38 -1 -38 22 0 24 4 26 41 26 36 0 40 -2
37 -22z m-3 -52 c26 -19 13 -43 -27 -49 -42 -6 -48 -2 -48 34 0 25 4 29 28 29
16 0 37 -6 47 -14z"/>
<path d="M11320 3999 c0 -5 5 -7 10 -4 6 3 10 8 10 11 0 2 -4 4 -10 4 -5 0
-10 -5 -10 -11z"/>
<path d="M11380 3999 c0 -5 5 -7 10 -4 6 3 10 8 10 11 0 2 -4 4 -10 4 -5 0
-10 -5 -10 -11z"/>
<path d="M11495 4000 c3 -5 8 -10 11 -10 2 0 4 5 4 10 0 6 -5 10 -11 10 -5 0
-7 -4 -4 -10z"/>
<path d="M12704 5042 c-33 -21 -34 -50 -34 -670 0 -611 0 -620 21 -646 l20
-26 850 0 c554 0 857 4 869 10 11 6 24 27 30 48 13 47 13 1170 0 1227 -5 22
-17 45 -26 52 -14 10 -194 13 -868 13 -468 0 -856 -4 -862 -8z m1708 -39 c17
-15 18 -48 18 -626 0 -554 -2 -612 -17 -629 -15 -17 -55 -18 -849 -18 l-833 0
-15 22 c-14 20 -16 96 -16 623 0 527 2 603 16 623 l15 22 831 0 c760 0 833 -1
850 -17z"/>
<path d="M13321 4973 c-1 -22 -6 -33 -16 -33 -11 0 -15 -11 -13 -47 l1 -48 4
43 c4 42 5 43 36 40 30 -3 32 -5 31 -40 0 -21 3 -38 8 -38 4 0 8 20 8 44 0 37
-3 45 -20 48 -28 4 -27 21 2 30 22 6 22 6 -4 7 -14 1 -29 7 -31 14 -3 6 -6 -3
-6 -20z"/>
<path d="M13690 4969 c-8 -19 -14 -52 -14 -74 2 -42 21 -102 30 -92 3 3 1 14
-5 25 -14 26 -14 107 0 133 6 11 9 25 7 31 -2 6 -11 -4 -18 -23z"/>
<path d="M13011 4983 c0 -6 -8 -19 -17 -27 -8 -9 -11 -16 -5 -16 6 0 11 -10
11 -22 -1 -83 2 -118 10 -118 6 0 10 24 10 53 0 37 3 48 10 37 13 -21 13 -3
-1 22 -9 16 -8 23 2 29 9 6 10 9 2 9 -6 0 -14 10 -16 23 -2 12 -5 17 -6 10z"/>
<path d="M13091 4972 c0 -13 -10 -26 -23 -32 l-23 -9 23 0 c24 -1 32 -31 8
-31 -8 0 -18 -5 -22 -11 -4 -7 0 -9 14 -5 15 5 22 1 27 -16 6 -17 1 -27 -21
-46 l-29 -24 31 16 c28 14 33 14 44 1 16 -20 36 -19 44 1 10 25 6 30 -7 12 -9
-11 -18 -14 -27 -8 -11 7 -10 13 5 37 17 25 17 27 1 14 -15 -13 -19 -13 -26 0
-7 10 -1 17 23 26 l32 13 -30 -3 c-38 -3 -42 24 -5 34 l25 7 -27 1 c-19 1 -28
7 -31 24 l-4 22 -2 -23z"/>
<path d="M13231 4978 c0 -10 -8 -18 -16 -18 -12 0 -15 -13 -13 -67 l2 -68 3
63 c5 88 23 77 24 -15 0 -57 3 -72 9 -55 5 12 14 22 20 22 6 0 10 25 10 60 0
45 -3 60 -14 60 -8 0 -17 8 -19 18 -4 16 -5 16 -6 0z m29 -78 c0 -27 -4 -50
-10 -50 -5 0 -10 23 -10 50 0 28 5 50 10 50 6 0 10 -22 10 -50z"/>
<path d="M13836 4975 c5 -12 -4 -15 -42 -17 -37 -1 -41 -2 -16 -5 22 -3 32
-10 32 -21 0 -34 -20 -86 -42 -109 -12 -12 -17 -23 -10 -23 13 0 47 46 57 78
6 19 12 23 43 20 40 -3 49 -19 38 -64 -4 -16 -14 -24 -29 -25 -19 -1 -20 -2
-3 -6 27 -7 46 22 46 69 l0 38 -45 0 c-38 0 -45 3 -45 20 0 18 7 20 63 22 50
1 54 2 19 5 -25 3 -45 10 -49 19 -3 8 -9 14 -14 14 -4 0 -6 -7 -3 -15z"/>
<path d="M13980 4982 c0 -12 19 -26 26 -19 2 2 -2 10 -11 17 -9 8 -15 8 -15 2z"/>
<path d="M14080 4976 c0 -8 -12 -17 -27 -19 l-28 -4 28 -2 c22 -1 27 -6 27
-26 0 -21 -5 -25 -32 -26 -33 -1 -33 -1 -5 -8 l27 -6 -20 -39 c-12 -21 -20
-39 -18 -41 2 -2 26 1 53 5 34 5 55 4 64 -4 10 -8 9 -1 -4 24 -23 46 -26 48
-23 19 3 -21 -1 -24 -35 -27 l-37 -3 17 35 c15 32 21 36 57 38 37 1 38 2 9 5
-27 4 -33 9 -33 28 0 18 6 25 28 28 l27 4 -27 2 c-18 0 -28 7 -28 16 0 8 -4
15 -10 15 -5 0 -10 -6 -10 -14z"/>
<path d="M13970 4932 c0 -12 19 -26 26 -19 2 2 -2 10 -11 17 -9 8 -15 8 -15 2z"/>
<path d="M13551 4870 l2 -55 6 43 c14 82 61 83 72 1 l6 -44 1 46 c2 54 -11 69
-56 66 -32 -2 -32 -2 -31 -57z"/>
<path d="M13326 4875 c-4 -19 -17 -44 -28 -55 -12 -11 -17 -20 -11 -20 19 0
44 37 50 74 7 46 -3 47 -11 1z"/>
<path d="M12975 4879 c-4 -6 -5 -12 -2 -15 2 -3 7 2 10 11 7 17 1 20 -8 4z"/>
<path d="M13443 4873 c15 -2 39 -2 55 0 15 2 2 4 -28 4 -30 0 -43 -2 -27 -4z"/>
<path d="M13985 4840 c-9 -18 -14 -34 -11 -37 2 -3 12 9 21 27 9 18 14 34 11
37 -2 3 -12 -9 -21 -27z"/>
<path d="M13356 4815 c10 -8 24 -14 29 -14 6 0 1 6 -9 14 -11 8 -24 15 -30 15
-5 0 -1 -7 10 -15z"/>
<path d="M13615 4705 c4 -11 11 -35 15 -52 7 -31 3 -69 -15 -118 -7 -20 -6
-20 9 -1 9 11 19 34 22 53 8 42 -2 94 -22 119 -15 19 -16 19 -9 -1z"/>
<path d="M13520 4650 c-7 -4 -19 -6 -27 -3 -10 4 -13 -8 -13 -51 0 -68 18 -75
22 -8 3 43 5 47 28 47 23 0 26 -5 31 -50 l6 -50 1 52 c2 41 -2 54 -16 62 -10
5 -24 6 -32 1z"/>
<path d="M13470 4000 c0 -5 5 -10 10 -10 6 0 10 5 10 10 0 6 -4 10 -10 10 -5
0 -10 -4 -10 -10z"/>
<path d="M13530 4000 c0 -5 5 -10 10 -10 6 0 10 5 10 10 0 6 -4 10 -10 10 -5
0 -10 -4 -10 -10z"/>
<path d="M13645 4000 c3 -5 8 -10 11 -10 2 0 4 5 4 10 0 6 -5 10 -11 10 -5 0
-7 -4 -4 -10z"/>
<path d="M1770 4603 c1 -5 7 -19 15 -33 19 -33 19 -101 1 -145 -17 -40 -5 -48
12 -10 24 52 25 100 4 149 -19 41 -33 58 -32 39z"/>
<path d="M1229 4573 c-8 -14 -14 -47 -14 -72 0 -47 21 -111 36 -111 4 0 1 16
-7 35 -16 40 -18 86 -4 134 12 43 8 49 -11 14z"/>
<path d="M1320 4581 c0 -11 -8 -22 -17 -24 -17 -4 -17 -5 0 -6 20 -1 21 -17 2
-51 -8 -14 -14 -29 -14 -35 0 -5 6 1 14 15 14 24 14 22 15 -32 0 -32 5 -58 10
-58 6 0 10 27 10 62 0 56 1 60 15 42 8 -10 15 -14 15 -8 0 6 -7 17 -15 24 -18
15 -19 37 -2 43 10 4 10 6 0 6 -7 1 -13 10 -13 21 0 11 -4 20 -10 20 -5 0 -10
-9 -10 -19z"/>
<path d="M1410 4577 c0 -17 -5 -27 -15 -27 -8 0 -15 -4 -15 -10 0 -5 7 -10 15
-10 21 0 19 -30 -2 -31 -14 0 -15 -2 -3 -6 17 -6 40 -32 40 -45 0 -5 -15 -17
-32 -28 -34 -20 -22 -28 13 -10 14 8 25 7 41 -4 24 -17 48 -6 48 22 0 13 -3
12 -14 -4 -11 -14 -18 -16 -26 -8 -9 9 -7 19 6 40 18 29 18 29 -2 11 -21 -17
-34 -14 -34 9 0 8 15 18 33 23 l32 9 -32 1 c-36 1 -49 31 -14 31 11 0 23 5 27
11 4 7 -4 10 -22 7 -22 -2 -29 1 -29 14 0 9 -4 20 -8 24 -4 4 -7 -5 -7 -19z"/>
<path d="M1549 4558 c0 -24 -1 -68 -2 -98 l-2 -55 100 -1 100 0 -92 3 -93 4 0
84 0 85 80 0 c47 0 80 4 80 10 0 6 -35 10 -85 10 l-85 0 -1 -42z"/>
<path d="M620 4580 c-27 -6 -39 -42 -21 -64 6 -7 29 -18 51 -25 34 -10 41 -16
38 -34 -5 -33 -65 -37 -90 -5 -9 13 -18 17 -18 11 -1 -43 82 -69 115 -37 27
28 15 57 -32 74 -57 21 -70 35 -53 55 18 22 56 18 74 -7 12 -17 16 -18 16 -6
0 29 -40 48 -80 38z"/>
<path d="M1093 4495 c0 -49 2 -79 4 -65 8 45 23 47 54 11 16 -19 32 -32 36
-28 3 4 -6 20 -20 35 -33 34 -33 39 -4 63 12 10 17 18 12 19 -6 0 -23 -11 -38
-26 -30 -28 -34 -24 -40 41 -2 22 -4 0 -4 -50z"/>
<path d="M750 4551 c0 -11 -6 -22 -12 -24 -10 -4 -10 -6 0 -6 7 -1 12 -17 12
-45 0 -43 22 -78 38 -61 4 4 1 10 -5 12 -8 3 -13 23 -13 49 0 35 4 44 18 44
16 1 16 1 0 11 -10 5 -18 17 -18 24 0 8 -4 15 -10 15 -5 0 -10 -9 -10 -19z"/>
<path d="M1672 4535 c-14 -30 -23 -31 -47 -5 -10 11 -23 20 -28 20 -6 0 2 -13
17 -29 l27 -28 -33 -27 c-18 -14 -28 -26 -22 -26 6 0 23 9 37 20 31 25 39 25
62 0 10 -11 21 -18 23 -15 3 3 -5 16 -18 30 -22 23 -22 25 -6 49 18 28 20 36
8 36 -5 0 -14 -11 -20 -25z"/>
<path d="M848 4529 c-10 -5 -18 -15 -18 -21 0 -9 3 -9 12 0 15 15 58 16 58 2
0 -5 0 -13 0 -17 1 -5 -14 -10 -31 -13 -43 -7 -60 -34 -36 -57 14 -15 22 -16
47 -6 21 8 30 8 30 0 0 -5 3 -7 7 -3 4 4 6 28 4 54 -3 62 -31 86 -73 61z m62
-69 c0 -5 -11 -17 -26 -26 -28 -19 -51 -7 -41 20 7 17 67 23 67 6z"/>
<path d="M975 4526 c-42 -31 -16 -116 36 -116 19 0 53 29 45 37 -3 3 -12 -2
-21 -11 -20 -19 -26 -20 -49 -3 -27 20 -18 81 12 85 13 2 30 -2 38 -9 21 -17
28 -5 9 15 -20 20 -45 20 -70 2z"/>
<path d="M12954 3296 c-17 -8 -34 -21 -38 -31 -3 -9 -6 -658 -6 -1441 l0
-1425 25 -25 24 -24 860 2 c829 3 860 4 880 22 l21 19 0 1429 c0 913 -4 1436
-10 1448 -5 10 -24 23 -41 29 -51 18 -1674 15 -1715 -3z m1720 -42 c14 -14 16
-157 16 -1423 0 -1199 -2 -1410 -14 -1427 -14 -19 -34 -19 -861 -19 -827 0
-847 0 -861 19 -12 17 -14 228 -14 1427 0 1266 2 1409 16 1423 14 14 105 16
859 16 754 0 845 -2 859 -16z"/>
<path d="M13194 2040 c-84 -33 -63 -160 26 -160 29 0 43 6 54 22 9 12 13 24
11 27 -3 3 -12 -5 -21 -17 -19 -27 -64 -29 -87 -4 -23 25 -22 85 1 105 23 21
65 22 82 2 7 -8 17 -15 23 -15 17 0 -25 37 -48 43 -11 3 -30 2 -41 -3z"/>
<path d="M13853 2040 c-46 -19 -60 -103 -23 -140 34 -34 120 -21 120 18 0 13
-3 12 -16 -6 -9 -13 -25 -22 -42 -22 -35 0 -49 10 -61 43 -11 29 0 75 22 89
22 14 66 8 76 -9 5 -10 13 -14 17 -10 22 22 -55 53 -93 37z"/>
<path d="M14250 1966 c0 -51 4 -86 10 -86 6 0 10 20 10 44 0 47 17 70 44 60
16 -6 22 -21 30 -79 2 -16 3 -6 2 24 -1 63 -21 85 -56 63 -18 -11 -20 -10 -20
17 0 17 -4 33 -10 36 -6 4 -10 -25 -10 -79z"/>
<path d="M13550 2008 c0 -25 -3 -29 -12 -20 -31 31 -78 0 -78 -52 0 -43 17
-56 69 -54 l41 1 0 79 c0 45 -4 78 -10 78 -5 0 -10 -14 -10 -32z m-16 -31 c12
-9 17 -23 14 -47 -2 -28 -8 -36 -27 -38 -43 -7 -67 50 -35 82 19 19 25 20 48
3z"/>
<path d="M13337 1982 c-21 -23 -22 -75 -2 -92 8 -7 26 -12 40 -12 36 0 55 20
55 57 0 56 -58 86 -93 47z m69 -17 c23 -35 6 -75 -31 -75 -37 0 -54 40 -31 75
9 14 23 25 31 25 8 0 22 -11 31 -25z"/>
<path d="M13609 1979 c-16 -16 -20 -28 -15 -52 4 -17 10 -35 15 -40 15 -15 61
-11 79 7 10 9 12 16 5 16 -7 0 -15 -4 -18 -10 -10 -16 -52 -12 -59 6 -9 24 -9
24 39 24 37 0 45 3 45 18 0 23 -30 52 -53 52 -9 0 -26 -9 -38 -21z m66 -5 c21
-21 6 -32 -35 -26 -34 5 -38 16 -12 31 23 14 28 14 47 -5z"/>
<path d="M14000 1985 c-14 -17 0 -21 17 -4 14 14 53 2 53 -16 0 -7 -15 -16
-34 -19 -40 -8 -59 -27 -50 -50 6 -15 25 -21 49 -16 6 1 20 2 33 2 19 0 22 6
22 40 0 22 -5 48 -10 59 -13 23 -62 26 -80 4z m65 -55 c10 -16 -15 -40 -41
-40 -31 0 -32 28 -1 40 30 12 35 12 42 0z"/>
<path d="M14137 1982 c-21 -23 -22 -75 -3 -91 23 -20 80 -10 84 14 3 19 2 19
-11 3 -21 -27 -55 -22 -69 8 -13 28 -5 50 26 68 13 9 20 7 31 -8 8 -11 18 -17
21 -13 11 11 -17 37 -41 37 -12 0 -29 -8 -38 -18z"/>
<path d="M14392 1975 c-34 -43 -10 -95 44 -95 32 0 53 15 39 28 -4 4 -10 1
-12 -5 -9 -26 -73 -9 -73 19 0 4 20 8 44 8 53 0 64 12 42 45 -21 33 -59 32
-84 0z m69 -1 c10 -13 10 -17 -2 -25 -18 -11 -56 -12 -64 0 -7 12 22 41 39 41
8 0 19 -7 27 -16z"/>
<path d="M14090 1768 c0 -14 -9 -18 -42 -19 -34 0 -39 -2 -22 -9 33 -13 39
-40 9 -40 -22 0 -25 -4 -25 -39 0 -22 -4 -51 -10 -65 -5 -14 -6 -26 -1 -26 13
0 21 27 21 71 l0 39 85 0 c50 0 85 4 85 10 0 6 -11 10 -25 10 -37 0 -29 33 10
43 11 2 1 5 -22 6 -29 1 -45 7 -52 19 -10 16 -10 16 -11 0z m40 -48 c0 -16 -7
-20 -30 -20 -23 0 -30 4 -30 20 0 16 7 20 30 20 23 0 30 -4 30 -20z"/>
<path d="M13531 1731 c-21 -40 -19 -54 5 -44 19 7 18 -11 -1 -27 -23 -19 -18
-30 13 -30 21 0 24 2 12 10 -13 8 -13 13 3 39 20 34 22 50 5 33 -26 -26 -38
-14 -22 23 19 47 9 45 -15 -4z"/>
<path d="M13645 1761 c3 -5 -7 -11 -22 -13 -26 -3 -28 -6 -31 -68 -2 -35 -6
-67 -8 -70 -3 -3 -20 -11 -37 -18 -29 -11 -29 -12 -4 -7 16 3 27 1 27 -5 0
-21 20 1 29 33 l9 32 3 -45 c1 -33 3 -37 6 -17 5 29 29 33 27 3 -2 -25 14 -19
19 7 4 22 4 22 15 -3 10 -24 11 -24 11 -2 1 12 6 22 12 22 7 0 9 -10 5 -26 -5
-17 -3 -23 4 -19 5 3 10 28 10 56 l0 49 -55 0 c-30 0 -55 5 -55 10 0 6 25 10
55 10 54 0 55 0 55 30 0 25 -4 30 -24 30 -14 0 -28 5 -31 10 -3 6 -11 10 -16
10 -6 0 -8 -4 -4 -9z m63 -38 c2 -9 -11 -13 -47 -13 -39 0 -51 4 -51 16 0 12
10 14 47 12 26 -2 48 -9 51 -15z m-63 -93 c-5 -8 -11 -8 -17 -2 -6 6 -7 16 -3
22 5 8 11 8 17 2 6 -6 7 -16 3 -22z m27 -2 c-9 -9 -12 -7 -12 12 0 19 3 21 12
12 9 -9 9 -15 0 -24z m30 0 c-9 -9 -12 -7 -12 12 0 19 3 21 12 12 9 -9 9 -15
0 -24z"/>
<path d="M13784 1751 c21 -23 26 -26 26 -11 0 5 -10 15 -22 21 -23 12 -23 12
-4 -10z"/>
<path d="M14270 1752 c0 -23 -19 -31 -21 -9 -1 14 -17 -32 -18 -53 0 -11 2
-11 10 3 16 27 29 20 29 -16 0 -25 -6 -37 -22 -46 l-23 -11 23 6 c20 5 22 1
24 -33 l1 -38 4 35 c3 19 9 40 14 47 7 7 7 13 0 17 -6 4 -6 18 0 38 6 22 5 36
-4 46 -6 8 -10 17 -9 19 2 3 1 7 -2 11 -3 3 -6 -4 -6 -16z"/>
<path d="M14327 1748 c-2 -13 -8 -32 -12 -43 -6 -19 -6 -19 8 -2 33 39 38 0 6
-52 -11 -18 -18 -35 -16 -37 7 -8 27 22 40 61 8 22 19 41 25 43 18 6 4 -56
-25 -105 -13 -24 -20 -43 -15 -43 13 0 50 71 57 113 11 58 25 43 25 -27 0 -56
-3 -67 -22 -80 -15 -11 -17 -16 -8 -16 32 0 39 17 42 95 l3 80 -47 3 c-36 2
-46 6 -41 18 3 7 1 14 -5 14 -5 0 -12 -10 -15 -22z"/>
<path d="M13860 1735 l23 -25 -34 -14 c-20 -9 -27 -15 -16 -16 10 0 27 5 39
11 14 8 28 7 49 -2 16 -6 33 -9 36 -5 4 4 -3 9 -15 13 -26 6 -26 7 -6 38 l16
25 -58 0 -57 0 23 -25z m58 -1 c-9 -9 -24 -14 -32 -11 -27 11 -17 27 16 27 30
0 31 -1 16 -16z"/>
<path d="M13260 1681 c0 -46 -5 -72 -14 -80 -16 -14 -46 -4 -46 15 0 8 -4 14
-10 14 -14 0 -13 -23 2 -38 17 -17 54 -15 72 4 18 18 23 154 6 154 -6 0 -10
-30 -10 -69z"/>
<path d="M13320 1745 c-4 -34 -1 -158 4 -162 3 -4 6 33 6 80 0 48 -2 87 -5 87
-3 0 -5 -2 -5 -5z"/>
<path d="M13385 1741 c30 -6 30 -7 35 -86 l6 -80 4 80 c5 79 5 80 35 86 19 4
5 7 -40 7 -45 0 -59 -3 -40 -7z"/>
<path d="M13766 1690 c19 -7 20 -14 16 -67 l-5 -58 22 20 c13 11 18 21 12 23
-6 2 -11 24 -11 48 0 42 -2 44 -27 43 -25 0 -26 -1 -7 -9z"/>
<path d="M13890 1672 c0 -7 -10 -17 -22 -22 l-23 -9 23 0 c33 -1 22 -24 -14
-32 l-29 -7 33 -1 c26 -1 32 -5 33 -23 l0 -23 9 23 c6 15 18 22 37 23 l28 1
-29 7 c-38 8 -47 31 -12 31 14 0 26 5 26 11 0 6 -8 8 -19 4 -13 -4 -23 0 -30
12 -6 10 -11 13 -11 5z"/>
<path d="M399 3231 l-24 -19 0 -1447 0 -1447 24 -19 c23 -19 95 -19 3703 -19
l3679 0 24 25 25 24 0 1434 0 1434 -25 27 -24 26 -3679 0 c-3608 0 -3680 0
-3703 -19z m7377 -25 c19 -14 19 -40 19 -1441 0 -1401 0 -1427 -19 -1441 -17
-12 -534 -14 -3678 -14 -3645 0 -3658 0 -3678 20 -20 20 -20 33 -20 1435 0
1402 0 1415 20 1435 20 20 33 20 3678 20 3144 0 3661 -2 3678 -14z"/>
<path d="M4105 3160 c-18 -34 -20 -119 -3 -155 17 -38 29 -30 12 10 -18 44
-18 82 1 134 17 48 12 54 -10 11z"/>
<path d="M4190 3154 c0 -21 -4 -33 -10 -29 -5 3 -10 1 -10 -4 0 -6 5 -11 10
-11 15 0 12 -88 -2 -93 -7 -2 0 -3 17 -1 16 3 34 9 40 16 7 8 5 9 -7 5 -15 -5
-18 0 -18 33 0 22 5 40 10 40 6 0 10 -4 10 -10 0 -5 7 -7 15 -4 12 5 15 -6 15
-62 0 -53 3 -65 12 -56 7 7 32 13 58 13 25 1 35 4 23 6 -14 3 -23 12 -23 23 0
11 9 20 23 23 l22 4 -22 2 c-28 1 -32 37 -5 44 16 4 15 5 -1 6 -12 1 -17 7
-15 19 2 9 11 16 21 16 9 -1 17 2 17 7 0 5 -9 9 -20 9 -11 0 -20 6 -20 14 0 8
-5 18 -12 22 -8 5 -9 0 -6 -14 5 -18 2 -22 -17 -22 -19 0 -22 4 -19 23 3 12
-5 2 -16 -22 -17 -36 -23 -41 -35 -31 -8 7 -15 25 -15 41 0 16 -4 29 -10 29
-5 0 -10 -16 -10 -36z m125 -35 c0 -8 -10 -15 -22 -17 -25 -4 -33 22 -10 31
18 8 32 2 32 -14z m3 -52 c2 -11 -3 -17 -17 -17 -23 0 -35 15 -26 31 10 15 39
6 43 -14z m0 -49 c3 -13 -3 -18 -22 -18 -20 0 -26 5 -26 21 0 15 5 20 22 17
13 -2 24 -11 26 -20z"/>
<path d="M4655 3173 c17 -43 23 -91 15 -123 -22 -88 -22 -87 -1 -50 11 20 20
54 21 78 0 41 -22 112 -36 112 -3 0 -3 -8 1 -17z"/>
<path d="M4422 3083 l3 -98 93 -3 c59 -2 92 1 92 8 0 6 -35 10 -90 10 l-91 0
3 83 3 82 85 6 85 5 -93 2 -93 2 3 -97z"/>
<path d="M3510 3080 c0 -47 4 -80 10 -80 6 0 10 18 10 40 l0 40 50 0 50 0 0
-40 c0 -22 5 -40 10 -40 6 0 10 33 10 80 0 47 -4 80 -10 80 -5 0 -10 -16 -10
-35 l0 -35 -50 0 -50 0 0 35 c0 19 -4 35 -10 35 -6 0 -10 -33 -10 -80z"/>
<path d="M4552 3126 c-12 -26 -36 -34 -47 -16 -3 5 -16 15 -28 21 -18 9 -16 5
8 -21 l30 -32 -35 -29 c-38 -32 -27 -40 13 -9 32 25 42 25 66 -1 10 -11 21
-16 25 -11 3 5 -5 19 -19 32 -22 21 -23 24 -8 46 8 13 13 29 11 35 -2 6 -9 0
-16 -15z"/>
<path d="M3686 3098 c-9 -12 -16 -29 -16 -38 0 -9 7 -26 16 -38 18 -26 65 -30
84 -7 15 18 7 19 -20 3 -15 -9 -25 -10 -37 -2 -33 21 -25 33 24 36 42 3 48 6
45 23 -7 46 -70 60 -96 23z m72 0 c21 -21 13 -28 -28 -28 -22 0 -40 4 -40 8 0
14 23 32 40 32 9 0 21 -5 28 -12z"/>
<path d="M3833 3113 c-7 -2 -13 -9 -13 -14 0 -5 9 -4 20 3 15 9 25 10 37 2 29
-18 27 -34 -4 -34 -38 0 -66 -21 -61 -46 3 -15 12 -19 51 -19 l47 -1 0 46 c0
25 -5 51 -12 58 -12 12 -43 15 -65 5z m62 -63 c11 -18 -16 -41 -43 -38 -34 4
-40 26 -10 37 31 13 46 13 53 1z"/>
<path d="M3952 3030 c0 -47 3 -71 5 -54 4 29 7 31 40 30 30 -1 40 4 52 27 14
24 14 30 1 55 -13 23 -23 27 -58 27 l-42 1 2 -86z m77 66 c17 -20 10 -67 -11
-80 -38 -23 -72 29 -48 73 12 24 42 27 59 7z"/>
<path d="M655 2085 l-25 -24 0 -711 0 -711 25 -24 24 -25 2191 0 2191 0 24 26
25 27 0 699 c0 740 0 744 -45 762 -9 3 -1000 6 -2201 6 l-2185 0 -24 -25z
m4396 -15 c18 -10 19 -29 19 -712 0 -639 -1 -703 -17 -720 -15 -17 -64 -18
-1153 -18 l-1137 0 5 81 c4 67 2 81 -9 77 -8 -3 -22 -1 -32 4 -30 15 -67 -15
-67 -55 0 -40 16 -57 49 -56 23 2 23 2 4 6 -45 9 -58 64 -20 87 33 21 52 -4
52 -70 0 -54 -2 -59 -24 -62 -13 -2 -28 1 -34 7 -15 15 -28 14 -25 -1 2 -10
-200 -14 -979 -16 -972 -2 -983 -2 -1003 18 -20 20 -20 33 -20 714 l0 695 22
15 c20 14 244 16 2186 16 1472 0 2169 -3 2183 -10z"/>
<path d="M918 1879 c-30 -17 -38 -79 -38 -295 0 -218 7 -266 40 -284 21 -11
1747 -14 1775 -4 39 15 45 54 45 287 0 231 -6 279 -40 297 -26 14 -1759 13
-1782 -1z m1763 -29 c18 -10 19 -24 19 -255 0 -208 -2 -246 -16 -259 -14 -14
-107 -16 -874 -16 -767 0 -860 2 -874 16 -14 13 -16 50 -16 251 0 206 2 239
17 255 15 17 55 18 870 18 570 0 861 -3 874 -10z"/>
<path d="M1557 1673 c-4 -3 -7 -42 -7 -85 l0 -78 63 2 62 2 -52 3 c-53 4 -53
4 -53 38 0 33 1 34 48 38 l47 3 -47 2 c-46 2 -48 3 -48 32 0 29 1 30 50 30 28
0 50 5 50 10 0 11 -103 14 -113 3z"/>
<path d="M1790 1644 c0 -31 -2 -35 -15 -24 -41 34 -89 -21 -69 -79 8 -23 15
-26 57 -27 l47 -2 0 84 c0 49 -4 84 -10 84 -5 0 -10 -16 -10 -36z m-12 -36 c7
-7 12 -24 12 -38 0 -48 -49 -69 -70 -31 -14 27 -13 47 6 65 19 19 36 20 52 4z"/>
<path d="M1852 1618 c-7 -7 -12 -28 -12 -48 0 -20 5 -41 12 -48 17 -17 63 -15
78 3 15 18 7 19 -20 3 -15 -10 -25 -10 -38 -2 -33 21 -20 39 31 42 52 3 54 7
31 40 -17 24 -62 30 -82 10z m66 -10 c20 -20 14 -28 -23 -28 -22 0 -35 5 -35
13 0 28 36 37 58 15z"/>
<path d="M1970 1568 c0 -69 18 -78 22 -12 2 31 9 51 20 58 25 15 41 -4 49 -62
l6 -47 2 51 c1 61 -10 74 -62 71 l-37 -2 0 -57z"/>
<path d="M3223 1878 c-37 -18 -43 -59 -43 -288 0 -233 6 -270 46 -289 17 -7
120 -11 319 -11 l294 0 28 24 28 24 0 252 0 252 -28 24 -28 24 -297 -1 c-188
0 -305 -4 -319 -11z m615 -34 c22 -15 22 -18 22 -254 0 -236 0 -239 -22 -254
-19 -14 -65 -16 -298 -16 -233 0 -279 2 -298 16 -22 15 -22 18 -22 254 0 236
0 239 22 254 19 14 65 16 298 16 233 0 279 -2 298 -16z"/>
<path d="M3426 1667 c-31 -23 -17 -58 29 -74 55 -19 72 -37 55 -57 -19 -24
-66 -20 -84 6 -9 12 -19 19 -22 15 -16 -15 30 -47 66 -47 73 0 80 53 13 85
-56 27 -70 42 -56 56 18 18 65 14 80 -7 7 -9 16 -14 20 -10 11 11 -35 46 -61
46 -12 0 -30 -6 -40 -13z"/>
<path d="M3580 1660 c-27 -27 -28 -110 -2 -133 45 -41 92 -7 92 66 0 49 -24
87 -55 87 -8 0 -24 -9 -35 -20z m76 -44 c8 -43 -14 -91 -41 -91 -27 0 -49 48
-41 91 12 64 69 64 82 0z"/>
<path d="M4274 1879 c-12 -6 -27 -22 -33 -35 -12 -27 -16 -460 -5 -502 13 -48
40 -52 359 -52 l296 0 24 25 25 24 0 249 c0 231 -1 252 -19 273 l-19 24 -304
2 c-197 1 -310 -2 -324 -8z m616 -39 c19 -19 20 -33 20 -250 0 -217 -1 -231
-20 -250 -19 -19 -33 -20 -300 -20 l-281 0 -24 25 c-25 24 -25 24 -25 239 0
219 6 261 39 269 9 3 141 5 294 6 264 1 278 0 297 -19z"/>
<path d="M4498 1669 c-10 -5 -18 -21 -18 -34 0 -19 9 -27 45 -40 56 -22 72
-39 55 -60 -19 -23 -66 -19 -84 7 -9 12 -18 20 -21 17 -2 -3 2 -15 11 -27 17
-25 81 -31 102 -10 26 26 14 55 -30 73 -54 21 -68 33 -61 51 8 21 70 18 82 -3
5 -10 13 -14 18 -10 11 12 -35 47 -61 47 -11 0 -29 -5 -38 -11z"/>
<path d="M4650 1659 c-24 -19 -24 -20 -3 -14 21 6 22 3 26 -67 l3 -73 2 88 c1
48 1 87 0 87 -2 0 -14 -10 -28 -21z"/>
<path d="M2817 825 c-9 -20 -17 -54 -17 -76 0 -40 26 -117 36 -106 3 3 1 14
-4 24 -20 39 -23 91 -7 138 20 57 15 68 -8 20z"/>
<path d="M3605 843 c24 -56 28 -112 12 -154 -20 -50 -15 -64 7 -20 9 16 16 51
16 76 0 44 -22 115 -36 115 -3 0 -3 -8 1 -17z"/>
<path d="M2901 815 c-22 -39 -15 -47 14 -15 25 27 70 24 70 -5 0 -15 -8 -21
-32 -23 -29 -3 -33 -7 -33 -33 0 -22 -5 -29 -20 -29 -11 0 -20 -4 -20 -10 0
-5 25 -10 55 -10 53 0 55 -1 56 -27 l1 -28 7 25 c5 20 14 26 44 28 50 4 47 22
-3 22 -36 0 -40 3 -40 25 0 22 5 25 38 26 l37 2 -35 6 c-26 4 -35 11 -35 26 0
15 9 22 35 26 25 5 15 7 -38 8 -46 1 -71 5 -67 11 3 6 2 10 -3 10 -6 0 -19
-16 -31 -35z m89 -79 c0 -14 -7 -25 -17 -28 -29 -8 -43 2 -43 28 0 20 5 24 30
24 25 0 30 -4 30 -24z"/>
<path d="M3151 843 c-1 -7 -8 -13 -16 -13 -8 0 -15 -4 -15 -10 0 -5 4 -10 10
-10 6 0 6 -9 0 -26 -14 -36 -13 -44 10 -44 28 0 26 -34 -2 -48 l-23 -11 23 0
c15 -1 22 -7 22 -21 0 -11 5 -20 10 -20 6 0 10 11 10 24 0 13 6 27 13 29 10 4
10 6 0 6 -7 1 -13 10 -13 20 0 11 6 22 13 24 10 4 10 6 0 6 -7 1 -13 10 -13
21 0 11 -4 20 -10 20 -5 0 -10 -9 -10 -20 0 -11 -5 -20 -11 -20 -7 0 -9 9 -5
23 3 12 6 25 6 30 0 4 11 7 25 7 14 0 25 5 25 10 0 6 -9 10 -19 10 -11 0 -22
6 -24 13 -4 10 -6 10 -6 0z"/>
<path d="M3377 798 c-21 -37 -24 -49 -13 -45 14 5 16 -3 16 -53 0 -33 4 -60
10 -60 6 0 10 35 10 86 0 47 5 94 10 105 6 10 7 19 3 19 -4 0 -21 -23 -36 -52z"/>
<path d="M3465 820 c6 -26 3 -30 -27 -39 l-33 -9 33 -1 c25 -1 32 -5 32 -21 0
-12 9 -38 20 -59 28 -56 71 -67 69 -18 -1 17 -2 18 -6 5 -8 -32 -34 -19 -54
28 -25 55 -19 74 20 74 16 0 32 4 35 9 4 5 -11 7 -34 4 -39 -6 -40 -5 -40 26
0 17 -5 31 -11 31 -7 0 -8 -11 -4 -30z"/>
<path d="M3500 846 c0 -2 8 -10 18 -17 15 -13 16 -12 3 4 -13 16 -21 21 -21
13z"/>
<path d="M3248 833 c17 -2 32 -8 32 -13 0 -5 -17 -22 -37 -39 -39 -32 -35 -43
5 -15 21 14 25 14 47 0 34 -22 45 -20 15 3 -21 17 -23 22 -12 45 l12 26 -48
-2 c-36 -1 -40 -2 -14 -5z"/>
<path d="M2090 827 c0 -5 14 -28 30 -52 19 -28 30 -57 31 -82 l2 -38 6 40 c4
22 20 59 35 83 37 55 28 65 -10 11 l-28 -41 -16 23 c-24 36 -49 65 -50 56z"/>
<path d="M2272 774 c-42 -29 -19 -114 31 -114 25 0 57 36 57 65 0 26 -31 65
-53 65 -7 0 -23 -7 -35 -16z m67 -26 c18 -49 -19 -89 -57 -62 -24 17 -27 35
-12 65 15 27 58 25 69 -3z"/>
<path d="M2560 781 c-8 -6 -18 -7 -22 -5 -4 3 -7 -23 -6 -58 l1 -63 6 49 c6
51 26 74 55 63 12 -5 16 -19 16 -57 0 -32 4 -49 10 -45 15 10 12 78 -6 103
-16 24 -31 27 -54 13z"/>
<path d="M2390 732 c0 -26 5 -53 12 -60 15 -15 45 -16 53 -1 4 6 1 10 -6 8
-34 -4 -39 2 -39 51 0 28 -4 50 -10 50 -5 0 -10 -22 -10 -48z"/>
<path d="M2479 773 c0 -5 -2 -29 -5 -55 -3 -29 -1 -48 6 -48 6 0 10 24 10 55
0 30 -2 55 -5 55 -3 0 -5 -3 -6 -7z"/>
<path d="M3238 719 c35 -13 26 -52 -13 -60 -19 -4 -4 -6 40 -6 39 0 55 2 38 4
-29 4 -33 8 -33 33 0 24 5 29 28 33 15 2 2 4 -28 5 -43 1 -50 -1 -32 -9z"/>
<path d="M5607 2098 c-9 -7 -21 -26 -27 -41 -14 -39 -14 -1375 0 -1413 22 -56
-29 -53 975 -53 1019 0 957 -4 975 60 15 50 13 1367 -1 1408 -6 17 -19 36 -29
41 -30 16 -1872 13 -1893 -2z m1875 -35 c17 -15 18 -51 18 -714 l0 -698 -22
-15 c-20 -14 -124 -16 -923 -16 -799 0 -903 2 -923 16 l-22 15 0 704 c0 660 1
705 18 714 11 7 327 10 926 11 832 0 911 -1 928 -17z"/>
<path d="M6336 1420 c-21 -53 -20 -86 4 -135 11 -22 17 -31 14 -20 -13 41 -16
125 -5 156 16 47 6 47 -13 -1z"/>
<path d="M6483 1448 c1 -7 -13 -15 -33 -19 l-35 -6 31 -2 c34 -1 53 -26 28
-35 -9 -3 -30 -7 -47 -8 -20 -1 -11 -4 23 -8 l55 -6 -55 -27 c-46 -23 -50 -27
-25 -24 26 2 30 -2 35 -28 5 -30 6 -30 70 -30 56 0 65 3 68 19 4 19 3 19 -13
2 -24 -23 -108 -19 -113 6 -2 13 6 18 35 23 21 4 49 11 63 16 20 7 16 8 -15 3
-22 -3 -50 -8 -62 -11 -13 -3 -23 -1 -23 5 0 19 67 52 104 52 24 0 35 4 31 11
-4 6 -13 8 -20 5 -24 -9 -25 7 -3 31 12 13 16 23 10 23 -6 0 -13 -4 -16 -8 -8
-13 -67 -1 -73 14 -6 17 -24 19 -20 2z m67 -43 c-7 -8 -21 -15 -31 -15 -11 0
-19 7 -19 15 0 10 10 15 31 15 27 0 30 -2 19 -15z"/>
<path d="M6665 1427 c-29 -48 -30 -54 -3 -29 32 29 88 31 88 2 0 -16 -7 -20
-35 -20 -33 0 -35 -2 -35 -34 0 -28 -4 -35 -22 -39 -13 -2 3 -5 35 -6 54 -1
57 -2 57 -26 0 -14 4 -25 8 -25 5 0 8 10 8 23 -1 19 5 23 44 28 l45 6 -42 1
c-41 2 -43 4 -43 32 0 27 3 30 33 31 l32 2 -35 6 c-46 8 -48 35 -2 39 17 2 32
8 32 13 0 7 -23 8 -60 4 -49 -5 -61 -3 -66 9 -9 23 -17 20 -39 -17z m85 -87
c0 -25 -4 -30 -25 -30 -14 0 -28 7 -31 15 -10 25 4 45 31 45 21 0 25 -5 25
-30z"/>
<path d="M6902 1409 c-25 -39 -28 -49 -15 -45 16 5 18 -1 15 -54 -3 -39 0 -60
7 -60 7 0 11 29 11 81 0 44 5 89 11 101 23 42 1 26 -29 -23z"/>
<path d="M6990 1430 c-4 -27 -10 -36 -27 -38 -13 -2 -23 -7 -23 -11 0 -5 11
-6 24 -4 22 4 26 1 31 -30 9 -45 41 -97 60 -97 15 0 41 38 32 47 -3 2 -10 -5
-17 -16 -6 -12 -15 -19 -21 -16 -12 8 -35 53 -43 87 -6 25 -3 27 36 36 l43 10
-42 1 c-39 1 -42 3 -45 34 l-4 32 -4 -35z"/>
<path d="M7035 1440 c10 -11 20 -20 23 -20 3 0 -3 9 -13 20 -10 11 -20 20 -23
20 -3 0 3 -9 13 -20z"/>
<path d="M7136 1425 c7 -19 14 -50 14 -70 0 -20 -7 -51 -14 -70 -8 -19 -11
-35 -7 -35 15 0 34 61 34 105 0 44 -19 105 -34 105 -4 0 -1 -16 7 -35z"/>
<path d="M5965 1415 c-49 -48 -18 -145 46 -145 42 0 65 15 77 50 13 35 1 86
-25 106 -28 21 -71 17 -98 -11z m89 -6 c33 -26 36 -79 6 -109 -42 -42 -104 -9
-104 55 0 27 6 43 23 56 30 24 42 24 75 -2z"/>
<path d="M6130 1355 c0 -50 4 -85 10 -85 6 0 10 35 10 85 0 50 -4 85 -10 85
-6 0 -10 -35 -10 -85z"/>
<path d="M6270 1411 c0 -26 -3 -28 -37 -27 -32 1 -38 -3 -47 -26 -6 -18 -6
-38 0 -55 8 -25 15 -28 57 -29 l47 -2 0 84 c0 49 -4 84 -10 84 -5 0 -10 -13
-10 -29z m-12 -43 c7 -7 12 -24 12 -38 0 -51 -53 -70 -70 -25 -19 51 24 97 58
63z"/>
<path d="M8217 3238 c-9 -7 -21 -26 -27 -41 -15 -41 -14 -2822 1 -2866 6 -17
19 -36 29 -41 12 -7 806 -10 2229 -10 l2210 0 20 26 21 27 0 1434 0 1434 -25
24 -24 25 -2209 0 c-1751 0 -2212 -3 -2225 -12z m4433 -38 c20 -20 20 -29 18
-1441 -3 -1393 -3 -1421 -22 -1435 -17 -12 -334 -14 -2206 -14 -1733 0 -2190
3 -2203 13 -16 11 -17 113 -17 1442 -1 1342 0 1431 17 1442 13 10 461 13 2205
13 2178 0 2188 0 2208 -20z"/>
<path d="M10540 3160 c-7 -17 -13 -50 -14 -73 0 -44 20 -107 35 -107 4 0 1 16
-7 35 -7 19 -14 50 -14 70 0 20 7 51 14 70 8 19 11 35 7 35 -5 0 -14 -14 -21
-30z"/>
<path d="M10891 3168 c-1 -22 -6 -28 -23 -28 -19 0 -20 -2 -8 -11 11 -8 12
-12 3 -16 -7 -2 -13 -9 -13 -15 0 -6 9 -3 20 7 19 17 20 17 20 0 0 -14 3 -16
11 -8 6 6 19 9 28 6 11 -4 10 -1 -4 10 l-20 16 20 1 c20 1 20 1 0 9 -11 4 -23
19 -26 32 -7 23 -7 23 -8 -3z"/>
<path d="M10976 3165 c-4 -16 -12 -40 -17 -53 -12 -30 -11 -32 4 -26 21 8 40
-42 25 -66 -7 -11 -16 -20 -20 -20 -5 0 -8 -5 -8 -12 0 -6 10 -2 23 10 l24 22
18 -20 c10 -11 20 -18 23 -16 2 3 -6 15 -17 27 -13 14 -19 29 -15 39 4 8 9 29
12 45 2 17 9 36 14 43 8 9 3 12 -20 12 -24 0 -31 5 -35 23 -3 20 -4 19 -11 -8z
m44 -52 c0 -47 -15 -59 -29 -24 -14 32 -8 51 15 51 9 0 14 -10 14 -27z"/>
<path d="M11111 3168 c-1 -16 -8 -28 -18 -31 -17 -4 -17 -5 0 -6 22 -1 25 -61
2 -61 -8 0 -15 -4 -15 -10 0 -5 7 -7 15 -4 12 5 15 -2 15 -29 0 -19 -6 -38
-12 -40 -8 -3 -6 -6 5 -6 13 -1 17 7 17 37 0 21 6 44 12 50 10 10 10 15 -2 22
-12 8 -13 13 -3 28 6 11 8 23 3 28 -4 5 -10 18 -13 29 -4 15 -5 14 -6 -7z"/>
<path d="M11576 3158 c16 -31 16 -117 0 -163 -7 -19 -7 -19 8 -1 25 31 31 101
11 151 -9 25 -21 45 -26 45 -5 0 -2 -14 7 -32z"/>
<path d="M10630 3170 c0 -6 33 -10 80 -10 47 0 80 4 80 10 0 6 -33 10 -80 10
-47 0 -80 -4 -80 -10z"/>
<path d="M10855 3170 c3 -5 8 -10 11 -10 2 0 4 5 4 10 0 6 -5 10 -11 10 -5 0
-7 -4 -4 -10z"/>
<path d="M10927 3173 c-4 -3 -7 -11 -7 -17 0 -6 5 -5 12 2 6 6 9 14 7 17 -3 3
-9 2 -12 -2z"/>
<path d="M11157 3103 c-2 -43 -7 -89 -12 -103 -6 -19 -5 -22 4 -14 7 6 15 30
18 53 5 37 8 41 34 41 33 0 39 -19 9 -27 -15 -4 -20 -14 -20 -37 0 -30 1 -31
45 -31 44 0 45 1 45 33 0 25 -4 32 -20 32 -32 0 -24 30 8 31 l27 1 -25 7 c-31
9 -33 35 -2 39 16 3 22 10 22 28 0 23 -3 24 -64 24 l-64 0 -5 -77z m113 52 c0
-11 -12 -15 -45 -15 -33 0 -45 4 -45 15 0 11 12 15 45 15 33 0 45 -4 45 -15z
m-42 -42 c5 -17 -26 -29 -40 -15 -6 6 -7 15 -3 22 9 14 37 9 43 -7z m40 -95
c3 -15 -4 -18 -32 -18 -34 0 -47 15 -29 34 13 13 58 1 61 -16z"/>
<path d="M11339 3178 c0 -2 -2 -43 -3 -93 -3 -60 0 -92 8 -97 17 -12 176 -10
176 2 0 6 -35 10 -85 10 l-85 0 0 85 0 84 88 4 87 3 -92 2 c-51 1 -93 1 -94 0z"/>
<path d="M9282 3083 l1 -88 7 65 6 65 29 -62 c17 -35 33 -63 38 -63 4 0 21 28
37 63 l29 62 0 -62 c1 -37 5 -63 11 -63 7 0 10 30 8 83 -2 46 -7 81 -13 80 -5
0 -21 -28 -35 -62 -14 -33 -29 -63 -33 -67 -4 -4 -21 25 -38 64 -18 40 -36 72
-40 72 -5 0 -8 -39 -7 -87z"/>
<path d="M9856 3157 c-31 -23 -17 -57 31 -76 57 -22 70 -36 53 -56 -19 -23
-66 -19 -84 7 -9 12 -18 20 -21 17 -2 -3 2 -15 11 -27 18 -26 84 -31 104 -7
21 26 6 49 -48 75 -61 28 -67 53 -12 58 24 3 38 -2 47 -14 7 -10 15 -15 19
-12 10 11 -35 48 -59 48 -13 0 -31 -6 -41 -13z"/>
<path d="M9630 3136 c0 -8 -6 -17 -12 -19 -10 -4 -10 -6 0 -6 7 -1 12 -16 12
-40 0 -54 8 -71 34 -70 16 1 17 2 4 6 -14 3 -18 15 -18 53 0 29 5 50 13 53 10
4 10 6 0 6 -7 1 -13 8 -13 16 0 8 -4 15 -10 15 -5 0 -10 -6 -10 -14z"/>
<path d="M11469 3126 c-15 -31 -22 -32 -60 -5 -35 25 -39 15 -4 -13 32 -25 32
-35 -5 -56 -16 -9 -30 -20 -30 -24 0 -15 18 -8 48 17 l29 24 23 -24 c13 -14
26 -23 28 -20 3 3 -5 16 -17 29 -22 23 -22 25 -6 56 9 17 14 34 11 37 -3 3
-11 -6 -17 -21z"/>
<path d="M9497 3102 c-19 -21 -22 -54 -7 -83 13 -23 72 -26 90 -4 14 17 0 21
-17 4 -16 -16 -57 -7 -61 14 -3 14 4 17 42 17 39 0 46 3 46 19 0 46 -62 67
-93 33z m57 2 c30 -12 18 -34 -19 -34 -37 0 -43 8 -23 28 14 14 20 14 42 6z"/>
<path d="M9720 3110 c-8 -5 -12 -12 -8 -15 3 -4 15 -1 26 6 17 10 23 10 36 0
24 -20 19 -31 -12 -31 -37 0 -65 -21 -60 -46 3 -16 12 -19 53 -19 l50 1 -2 49
c-1 26 -8 52 -15 57 -17 10 -50 10 -68 -2z m70 -63 c0 -20 -22 -37 -47 -37
-16 0 -23 6 -23 19 0 11 6 22 13 24 24 10 57 7 57 -6z"/>
<path d="M9990 3032 c0 -46 4 -81 9 -78 4 3 6 17 4 30 -5 24 -3 25 32 19 44
-7 65 12 65 57 0 38 -28 59 -73 57 l-37 -2 0 -83z m79 64 c7 -8 11 -30 9 -48
-2 -28 -7 -34 -30 -36 -23 -3 -30 2 -38 24 -19 48 29 96 59 60z"/>
<path d="M10140 3105 c-15 -18 -7 -19 19 -3 10 6 26 8 35 5 23 -9 20 -37 -5
-37 -34 0 -59 -19 -59 -46 0 -24 2 -25 50 -22 l50 3 0 46 c0 25 -5 50 -12 57
-17 17 -63 15 -78 -3z m70 -58 c0 -31 -51 -50 -66 -25 -8 13 22 38 48 38 10 0
18 -6 18 -13z"/>
<path d="M10277 3102 c-19 -21 -22 -54 -7 -83 15 -27 75 -26 90 1 6 11 7 20 1
20 -5 0 -11 -7 -15 -15 -9 -25 -55 -19 -66 9 -20 53 22 95 61 60 20 -18 27 -6
7 14 -18 18 -53 15 -71 -6z"/>
<path d="M10407 3102 c-20 -22 -22 -73 -5 -90 15 -15 74 -16 83 -1 4 6 4 13 0
17 -4 4 -10 1 -12 -5 -7 -20 -51 -15 -63 7 -10 19 -8 20 34 20 53 0 64 12 42
45 -20 30 -56 33 -79 7z m61 -4 c20 -20 14 -28 -23 -28 -24 0 -35 5 -35 14 0
24 39 33 58 14z"/>
<path d="M10610 3100 c0 -5 14 -10 30 -10 17 0 30 -4 30 -9 0 -21 -20 -60 -41
-80 -13 -12 -18 -21 -12 -21 19 0 63 60 63 86 0 19 5 24 24 24 23 0 25 -4 28
-52 l3 -53 35 0 c30 0 35 4 37 25 l3 25 -10 -23 c-7 -17 -17 -22 -32 -20 -20
3 -23 10 -26 51 l-3 47 35 0 c20 0 36 5 36 10 0 6 -40 10 -100 10 -60 0 -100
-4 -100 -10z"/>
<path d="M10875 3070 c-4 -6 -11 -8 -16 -5 -5 4 -9 1 -9 -4 0 -6 5 -11 11 -11
5 0 7 -5 4 -10 -4 -6 -2 -17 5 -25 9 -10 7 -16 -7 -25 -16 -11 -16 -11 2 -4
11 4 33 7 48 7 16 0 24 3 17 7 -9 6 -9 13 -1 28 15 28 14 32 -9 32 -11 0 -20
5 -20 10 0 13 -17 13 -25 0z m45 -35 c-7 -8 -19 -15 -26 -15 -8 0 -14 7 -14
15 0 10 10 15 26 15 22 0 25 -2 14 -15z"/>
<path d="M8523 2657 l-82 -62 -1 -487 0 -488 613 -2 612 -3 80 61 80 60 3 492
2 492 -612 0 -613 0 -82 -63z m1187 -17 l-45 -39 -572 -1 c-315 0 -573 3 -573
8 1 4 20 21 43 39 l42 32 575 0 575 0 -45 -39z m90 -429 l0 -449 -51 -41 c-29
-23 -56 -41 -60 -41 -5 0 -9 199 -9 444 l0 444 53 46 c28 25 55 46 60 46 4 0
7 -202 7 -449z m-152 -103 l-3 -453 -585 0 -585 0 -3 453 -2 452 590 0 590 0
-2 -452z"/>
<path d="M8809 2200 c-14 -21 -16 -21 -31 -6 -21 20 -28 20 -28 1 0 -8 -7 -15
-15 -15 -9 0 -15 -9 -15 -25 0 -14 5 -25 10 -25 6 0 10 7 10 15 0 12 16 15 80
15 64 0 80 -3 80 -15 0 -8 5 -15 10 -15 6 0 10 11 10 25 0 16 -6 25 -15 25 -8
0 -15 7 -15 15 0 8 -4 15 -10 15 -5 0 -10 -4 -10 -9 0 -20 -31 -20 -38 0 l-8
21 -15 -22z"/>
<path d="M9318 2188 c-4 -39 -28 -51 -28 -13 0 15 -4 24 -10 20 -5 -3 -10 -17
-10 -30 0 -13 -5 -27 -10 -30 -7 -5 -8 -11 -1 -19 5 -6 11 -32 13 -56 l3 -45
61 -3 c54 -3 62 -1 67 17 7 29 -4 34 -21 10 -10 -15 -23 -19 -50 -17 l-37 3
-3 53 c-2 42 0 52 12 52 12 0 16 -11 16 -40 0 -56 18 -50 22 7 2 28 8 48 17
51 10 3 12 -4 9 -32 -3 -25 0 -36 9 -36 9 0 13 16 13 50 0 49 -1 50 -25 44
-22 -5 -25 -3 -25 20 0 37 -18 32 -22 -6z"/>
<path d="M8980 2186 c0 -21 6 -25 48 -30 40 -5 65 -4 105 3 4 0 7 12 7 26 0
25 -1 25 -80 25 -78 0 -80 -1 -80 -24z m108 7 c-16 -2 -40 -2 -55 0 -16 2 -3
4 27 4 30 0 43 -2 28 -4z m10 -20 c-15 -2 -42 -2 -60 0 -18 2 -6 4 27 4 33 0
48 -2 33 -4z"/>
<path d="M9200 2201 c0 -13 29 -35 37 -28 7 8 -15 37 -28 37 -5 0 -9 -4 -9 -9z"/>
<path d="M8762 2123 c2 -19 10 -29 28 -34 21 -6 20 -7 -12 -8 -34 -1 -38 -4
-38 -26 0 -14 0 -28 -1 -32 0 -4 4 -9 10 -11 6 -2 11 8 11 22 0 21 5 26 25 26
21 0 25 -5 25 -30 0 -16 5 -30 10 -30 6 0 10 14 10 30 0 25 4 30 24 30 31 0
42 -16 20 -28 -12 -7 -13 -11 -5 -16 17 -11 42 14 39 38 -2 16 -12 22 -43 27
-38 5 -38 5 -10 10 24 3 30 9 30 29 0 24 -3 25 -63 28 l-63 3 3 -28z m98 -3
c0 -5 -18 -10 -40 -10 -22 0 -40 5 -40 10 0 6 18 10 40 10 22 0 40 -4 40 -10z"/>
<path d="M9200 2141 c0 -13 26 -32 33 -24 8 7 -11 33 -24 33 -5 0 -9 -4 -9 -9z"/>
<path d="M9003 2133 c32 -2 81 -2 110 0 29 2 3 3 -58 3 -60 0 -84 -1 -52 -3z"/>
<path d="M8993 2113 c-7 -2 -13 -15 -13 -28 0 -19 6 -25 33 -28 31 -4 31 -4
-5 -5 -52 -3 -48 -20 5 -25 l42 -4 -47 -1 c-27 -1 -48 -6 -48 -12 0 -6 40 -10
100 -10 60 0 100 4 100 10 0 6 -21 11 -47 12 -44 1 -45 2 -10 5 45 5 49 23 5
23 -23 0 -29 3 -19 9 11 7 11 9 0 14 -8 3 -4 6 9 6 13 1 20 -3 17 -9 -3 -5 0
-10 8 -10 15 0 30 37 21 52 -6 9 -130 10 -151 1z m50 -20 c-7 -2 -21 -2 -30 0
-10 3 -4 5 12 5 17 0 24 -2 18 -5z m70 0 c-7 -2 -21 -2 -30 0 -10 3 -4 5 12 5
17 0 24 -2 18 -5z m-70 -20 c-7 -2 -21 -2 -30 0 -10 3 -4 5 12 5 17 0 24 -2
18 -5z"/>
<path d="M9212 2055 c-14 -31 -15 -45 -4 -45 9 0 32 44 32 60 0 19 -17 10 -28
-15z"/>
<path d="M10633 2562 l-112 -87 0 -697 -1 -698 859 0 858 0 109 88 109 88 0
694 0 695 -855 2 -855 3 -112 -88z m1751 40 c-5 -5 -41 -34 -80 -65 l-71 -57
-823 0 -822 0 79 64 78 65 824 0 c454 1 821 -3 815 -7z m44 -674 l-3 -652 -70
-58 c-38 -32 -78 -63 -87 -68 -17 -10 -18 23 -18 644 l0 655 81 66 c45 36 85
65 90 65 5 0 8 -266 7 -652z m-208 -148 l0 -660 -22 -5 c-13 -3 -387 -5 -833
-3 l-810 3 -3 663 -2 662 835 0 835 0 0 -660z"/>
<path d="M11727 1985 c-25 -44 -28 -73 -6 -60 5 4 9 -20 9 -55 0 -38 4 -59 10
-55 6 3 10 44 10 91 l0 84 87 0 c85 0 105 5 50 12 -16 3 -33 11 -38 19 -8 12
-11 11 -20 -3 -13 -23 -48 -23 -64 -2 -10 15 -15 11 -38 -31z"/>
<path d="M11490 2010 c0 -6 33 -10 80 -10 47 0 80 4 80 10 0 6 -33 10 -80 10
-47 0 -80 -4 -80 -10z"/>
<path d="M10883 2000 c-34 -14 -47 -75 -25 -120 15 -30 22 -35 58 -38 30 -2
45 2 59 18 23 25 12 39 -13 17 -23 -21 -56 -22 -76 -1 -22 21 -20 77 2 97 23
21 61 22 68 2 7 -16 34 -21 34 -6 0 15 -42 41 -65 40 -11 0 -30 -4 -42 -9z"/>
<path d="M11028 1958 c-4 -66 1 -118 13 -118 5 0 9 38 9 85 0 93 -16 117 -22
33z"/>
<path d="M11790 1960 c0 -5 25 -10 55 -10 30 0 55 5 55 10 0 6 -25 10 -55 10
-30 0 -55 -4 -55 -10z"/>
<path d="M11097 1953 c-16 -15 -5 -21 28 -16 28 4 35 2 35 -11 0 -10 -8 -16
-23 -16 -32 0 -60 -23 -55 -46 3 -16 12 -19 56 -20 l52 -1 0 47 c0 25 -5 51
-12 58 -13 13 -70 17 -81 5z m61 -70 c-4 -23 -48 -31 -48 -10 0 9 6 18 13 20
25 11 38 7 35 -10z"/>
<path d="M11224 1946 c-10 -26 3 -44 35 -51 17 -4 31 -13 31 -21 0 -17 -47
-19 -53 -1 -2 6 -8 9 -12 5 -4 -4 -5 -14 -2 -23 8 -20 70 -20 87 0 18 22 6 41
-34 55 -47 15 -47 34 0 27 25 -4 34 -2 31 6 -6 19 -76 21 -83 3z"/>
<path d="M11351 1946 c-17 -20 -7 -33 35 -51 19 -8 34 -19 34 -24 0 -14 -47
-14 -55 -1 -4 6 -11 8 -16 4 -18 -11 13 -34 46 -34 61 0 71 53 12 68 -17 4
-33 14 -35 21 -4 11 4 12 33 7 28 -6 36 -4 33 6 -7 19 -72 22 -87 4z"/>
<path d="M11470 1940 c0 -5 14 -10 30 -10 25 0 30 -4 30 -24 0 -15 -12 -34
-31 -51 -35 -29 -32 -45 5 -26 26 14 46 50 46 81 0 13 7 20 19 20 17 0 20 -8
23 -52 l3 -53 37 -3 c30 -3 38 1 43 18 9 27 -3 40 -16 17 -6 -9 -19 -17 -29
-17 -17 0 -20 7 -20 45 0 43 1 45 29 45 17 0 33 5 36 10 4 6 -32 10 -99 10
-64 0 -106 -4 -106 -10z"/>
<path d="M11793 1928 c-2 -5 22 -8 53 -8 32 0 54 3 50 7 -10 10 -97 10 -103 1z"/>
<path d="M11787 1893 c-10 -10 -8 -71 2 -78 5 -3 12 -1 16 5 3 5 21 10 40 10
19 0 37 -5 40 -10 12 -20 25 1 25 41 l0 39 -58 0 c-32 0 -62 -3 -65 -7z m101
-30 c2 -9 -10 -13 -42 -13 -43 0 -55 7 -39 24 12 11 76 2 81 -11z"/>
<path d="M11365 1730 c-3 -5 -17 -10 -31 -10 -24 0 -25 -2 -22 -57 2 -42 7
-57 17 -55 22 5 51 -8 51 -23 0 -8 5 -17 12 -21 7 -5 9 0 6 14 -5 18 -1 21 26
24 30 3 31 4 34 61 l3 57 -36 0 c-19 0 -35 5 -35 10 0 6 -4 10 -9 10 -6 0 -13
-4 -16 -10z m70 -30 c4 -6 -15 -10 -50 -10 -35 0 -54 4 -50 10 3 6 26 10 50
10 24 0 47 -4 50 -10z m2 -36 c-8 -9 -95 -9 -104 -1 -3 4 20 7 52 7 32 0 56
-3 52 -6z m3 -34 c0 -5 -25 -10 -55 -10 -30 0 -55 5 -55 10 0 6 25 10 55 10
30 0 55 -4 55 -10z"/>
<path d="M11291 1572 c-14 -26 -7 -42 10 -25 6 6 9 19 7 29 -3 17 -5 17 -17
-4z"/>
<path d="M11332 1563 c3 -26 7 -28 56 -31 48 -3 52 -1 52 19 0 21 -1 21 -19 5
-26 -24 -65 -17 -69 12 -5 32 -24 27 -20 -5z"/>
<path d="M11450 1582 c0 -5 6 -17 14 -28 19 -25 31 -12 14 15 -13 21 -28 28
-28 13z"/>
<path d="M8550 1376 l-105 -54 -3 -431 -2 -431 831 0 831 0 104 56 104 56 0
429 0 429 -827 0 -828 0 -105 -54z m1650 16 c0 -5 -26 -21 -57 -35 l-58 -28
-770 3 -770 3 60 32 60 32 768 1 c422 0 767 -4 767 -8z m80 -407 l0 -395 -80
-40 c-44 -22 -82 -40 -85 -40 -3 0 -5 178 -5 395 l0 394 73 39 c39 22 78 40
85 41 9 1 12 -84 12 -394z m-210 -95 l0 -400 -797 2 -798 3 -3 385 c-1 212 0
391 3 397 3 10 172 13 800 13 l795 0 0 -400z"/>
<path d="M8780 985 c0 -11 -12 -15 -45 -15 -25 0 -45 -4 -45 -10 0 -5 16 -10
35 -10 27 0 35 -4 35 -17 -1 -29 -27 -93 -46 -114 -9 -10 -14 -22 -11 -26 11
-10 46 27 59 63 11 31 16 34 51 34 38 0 38 0 35 -37 -2 -31 -7 -39 -25 -41
-30 -4 -30 -22 0 -22 35 0 47 19 47 72 l0 48 -45 0 c-38 0 -45 3 -45 20 0 18
7 20 60 20 33 0 60 4 60 10 0 6 -20 10 -44 10 -30 0 -46 5 -50 15 -3 8 -10 15
-16 15 -5 0 -10 -7 -10 -15z"/>
<path d="M8940 992 c0 -10 21 -32 32 -32 16 0 8 19 -12 30 -11 6 -20 7 -20 2z"/>
<path d="M9050 985 c0 -9 -9 -15 -25 -15 -14 0 -25 -4 -25 -10 0 -5 11 -10 25
-10 18 0 25 -5 25 -20 0 -16 -7 -20 -30 -20 -20 0 -30 -5 -30 -15 0 -9 9 -15
25 -15 l26 0 -23 -39 c-12 -22 -20 -42 -17 -45 3 -3 28 -2 57 3 32 5 55 4 61
-2 19 -19 23 1 6 32 -17 34 -34 41 -31 14 1 -13 -8 -19 -32 -21 l-33 -3 15 30
c13 24 23 30 53 33 50 4 57 28 8 28 -29 0 -36 3 -33 18 2 10 14 18 31 20 34 4
36 22 2 22 -14 0 -28 7 -31 15 -4 8 -10 15 -15 15 -5 0 -9 -7 -9 -15z"/>
<path d="M9426 954 c-30 -55 -30 -54 -11 -54 12 0 15 -14 15 -62 0 -93 18 -59
22 42 2 47 7 93 12 103 5 10 4 17 -2 17 -6 0 -22 -21 -36 -46z"/>
<path d="M9530 990 c0 -5 -11 -10 -24 -10 -14 0 -28 -4 -31 -10 -4 -6 22 -10
69 -10 42 0 76 4 76 8 0 5 -15 9 -32 10 -18 0 -34 6 -36 11 -5 14 -22 14 -22
1z"/>
<path d="M9708 993 c-27 -4 -28 -7 -28 -64 l0 -59 35 0 c28 0 35 -4 33 -16 -2
-10 3 -19 11 -22 9 -3 11 1 6 17 -6 19 -2 21 29 21 l36 0 0 55 c0 36 -4 57
-12 60 -26 7 -84 12 -110 8z m97 -33 c-3 -5 -26 -10 -50 -10 -24 0 -47 5 -50
10 -4 6 15 10 50 10 35 0 54 -4 50 -10z m0 -30 c4 -6 -15 -10 -49 -10 -31 0
-56 5 -56 10 0 6 22 10 49 10 28 0 53 -4 56 -10z m-17 -37 c-15 -2 -42 -2 -60
0 -18 2 -6 4 27 4 33 0 48 -2 33 -4z"/>
<path d="M9190 980 c0 -6 33 -10 79 -10 44 0 83 5 86 10 4 6 -25 10 -79 10
-51 0 -86 -4 -86 -10z"/>
<path d="M8930 931 c0 -13 29 -35 37 -28 7 8 -15 37 -28 37 -5 0 -9 -4 -9 -9z"/>
<path d="M9490 930 c0 -5 25 -10 55 -10 30 0 55 5 55 10 0 6 -25 10 -55 10
-30 0 -55 -4 -55 -10z"/>
<path d="M9170 910 c0 -5 14 -10 30 -10 24 0 30 -4 30 -21 0 -11 -13 -34 -30
-51 -34 -33 -36 -38 -17 -38 21 0 56 43 63 78 4 22 12 32 25 32 15 0 19 -9 21
-52 3 -52 4 -53 37 -56 33 -3 51 9 51 36 0 6 -4 12 -10 12 -5 0 -10 -7 -10
-15 0 -9 -9 -15 -25 -15 -23 0 -25 4 -25 45 0 43 1 45 30 45 17 0 30 5 30 10
0 6 -40 10 -100 10 -60 0 -100 -4 -100 -10z"/>
<path d="M9490 900 c0 -5 25 -10 55 -10 30 0 55 5 55 10 0 6 -25 10 -55 10
-30 0 -55 -4 -55 -10z"/>
<path d="M8949 844 c-5 -15 -12 -30 -14 -35 -3 -4 -1 -10 4 -14 10 -6 41 44
41 65 0 20 -21 9 -31 -16z"/>
<path d="M9484 845 c-11 -43 0 -54 45 -48 24 3 47 1 54 -6 19 -15 27 -4 27 41
l0 38 -60 0 c-55 0 -60 -2 -66 -25z m106 -10 c0 -11 -11 -15 -39 -15 -38 0
-57 10 -44 24 3 3 24 6 45 6 27 0 38 -4 38 -15z"/>
<path d="M9655 829 c-4 -11 -4 -23 0 -27 7 -7 25 17 25 36 0 20 -18 14 -25 -9z"/>
<path d="M9702 823 c3 -26 7 -28 51 -31 36 -2 49 1 53 13 4 9 3 19 -1 23 -4 4
-10 1 -12 -5 -3 -7 -20 -13 -39 -13 -27 0 -34 4 -34 20 0 11 -5 20 -11 20 -6
0 -9 -12 -7 -27z"/>
<path d="M9820 844 c0 -15 22 -44 31 -39 11 7 -7 45 -21 45 -6 0 -10 -3 -10
-6z"/>
</g>
</svg>
